<svg width="24" height="24" viewBox="0 0 24 24" fill="none" xmlns="http://www.w3.org/2000/svg">
<path d="M24 12C24 10.5322 23.736 9.12605 23.2536 7.82612L12 7.30435L0.746391 7.82607C0.264047 9.12605 0 10.5322 0 12C0 13.4678 0.264047 14.874 0.746391 16.1739L12 16.6957L23.2536 16.1739C23.736 14.874 24 13.4678 24 12Z" fill="#0052B4"/>
<path d="M11.9997 24C17.1593 24 21.5578 20.7435 23.2533 16.1739H0.746094C2.44161 20.7435 6.84013 24 11.9997 24Z" fill="#FF9811"/>
<path d="M0.746094 7.82611H23.2534C21.5578 3.2565 17.1593 0 11.9997 0C6.84013 0 2.44161 3.2565 0.746094 7.82611Z" fill="#D80027"/>
</svg>
