<svg width="40" height="40" viewBox="0 0 40 40" fill="none" xmlns="http://www.w3.org/2000/svg">
<path d="M20.7592 13.7776C20.7592 11.0053 19.1064 6.69385 15.9199 6.69385C14.9182 6.69385 13.8448 7.1939 13.2286 7.96444C12.5746 8.77426 12.3848 9.81037 12.3848 10.8146C12.3848 13.3926 13.8816 17.6651 17.1872 17.6651C18.1468 17.6651 19.1809 17.2056 19.7988 16.5889C20.6823 15.7005 20.7592 14.4712 20.7592 13.7776Z" fill="black"/>
<path d="M18.6842 23.9032C18.3781 23.8647 18.1858 23.8647 17.8019 23.8647C17.4553 23.8647 15.3802 23.9405 13.7676 24.4831C12.923 24.7891 10.4648 25.714 10.4648 28.447C10.4648 31.1814 13.1157 33.1468 17.2258 33.1468C20.9148 33.1468 22.8745 31.3717 22.8745 28.988C22.8741 27.0185 21.6063 25.9828 18.6842 23.9032Z" fill="black"/>
<path d="M20 0C8.95427 0 0 8.95427 0 20C0 31.0457 8.95427 40 20 40C31.0457 40 40 31.0457 40 20C40 8.95427 31.0457 0 20 0ZM15.3408 34.7601C9.769 34.7601 7.08133 32.1052 7.08133 29.2542C7.08133 27.8691 7.77166 25.9069 10.0387 24.5586C12.4194 23.0952 15.6485 22.9041 17.3782 22.7851C16.8385 22.0927 16.2259 21.3614 16.2259 20.1682C16.2259 19.5147 16.4182 19.1292 16.6081 18.6668C16.185 18.7061 15.7643 18.7437 15.3796 18.7437C11.3088 18.7437 9.00379 15.7001 9.00379 12.6977C9.00379 10.9291 9.80951 8.96409 11.4611 7.53964C13.652 5.73013 16.6457 5.23908 18.722 5.23908H26.2916L23.7934 6.8088H21.4134C22.2965 7.53964 24.1379 9.07949 24.1379 12.007C24.1379 14.8538 22.5264 16.205 20.9138 17.474C20.4133 17.9736 19.8367 18.5125 19.8367 19.3608C19.8367 20.2058 20.4137 20.6674 20.8352 21.0169L22.2195 22.0923C23.9104 23.5159 25.4474 24.8254 25.4465 27.4844C25.4461 31.1047 21.9478 34.7601 15.3408 34.7601ZM31.9202 19.5294V23.4021H30.019V19.5294H26.1753V17.6074H30.019V13.7584H31.9202V17.6074H35.7823V19.5294H31.9202Z" fill="black"/>
</svg>
