<svg width="40" height="41" viewBox="0 0 40 41" fill="none" xmlns="http://www.w3.org/2000/svg">
<path d="M20.7592 13.8382C20.7592 11.0658 19.1064 6.75439 15.9199 6.75439C14.9182 6.75439 13.8448 7.25445 13.2286 8.02498C12.5746 8.8348 12.3848 9.87092 12.3848 10.8751C12.3848 13.4531 13.8816 17.7256 17.1872 17.7256C18.1468 17.7256 19.1809 17.2661 19.7988 16.6494C20.6823 15.761 20.7592 14.5318 20.7592 13.8382Z" fill="#7A8086"/>
<path d="M18.6832 23.9638C18.3771 23.9253 18.1848 23.9253 17.801 23.9253C17.4544 23.9253 15.3793 24.001 13.7666 24.5436C12.922 24.8497 10.4639 25.7745 10.4639 28.5076C10.4639 31.2419 13.1147 33.2073 17.2248 33.2073C20.9138 33.2073 22.8735 31.4322 22.8735 29.0486C22.8731 27.0791 21.6054 26.0433 18.6832 23.9638Z" fill="#7A8086"/>
<path d="M20 0.0605469C8.95427 0.0605469 0 9.01482 0 20.0605C0 31.1063 8.95427 40.0605 20 40.0605C31.0457 40.0605 40 31.1063 40 20.0605C40 9.01482 31.0457 0.0605469 20 0.0605469ZM15.3408 34.8206C9.769 34.8206 7.08133 32.1657 7.08133 29.3148C7.08133 27.9296 7.77166 25.9675 10.0387 24.6191C12.4194 23.1558 15.6485 22.9647 17.3782 22.8456C16.8385 22.1532 16.2259 21.422 16.2259 20.2287C16.2259 19.5752 16.4182 19.1898 16.6081 18.7274C16.185 18.7666 15.7643 18.8043 15.3796 18.8043C11.3088 18.8043 9.00379 15.7606 9.00379 12.7582C9.00379 10.9897 9.80951 9.02464 11.4611 7.60019C13.652 5.79067 16.6457 5.29963 18.722 5.29963H26.2916L23.7934 6.86934H21.4134C22.2965 7.60019 24.1379 9.14003 24.1379 12.0675C24.1379 14.9144 22.5264 16.2656 20.9138 17.5345C20.4133 18.0342 19.8367 18.5731 19.8367 19.4214C19.8367 20.2664 20.4137 20.728 20.8352 21.0774L22.2195 22.1528C23.9104 23.5765 25.4474 24.8859 25.4465 27.5449C25.4461 31.1652 21.9478 34.8206 15.3408 34.8206ZM31.9202 19.59V23.4627H30.019V19.59H26.1753V17.6679H30.019V13.8189H31.9202V17.6679H35.7823V19.59H31.9202Z" fill="#7A8086"/>
</svg>
