<svg width="40" height="40" viewBox="0 0 40 40" fill="none" xmlns="http://www.w3.org/2000/svg">
    <path d="M40 20.0605C40 9.01367 31.0469 0.0605469 20 0.0605469C8.95312 0.0605469 0 9.01367 0 20.0605C0 31.1074 8.95312 40.0605 20 40.0605C20.1172 40.0605 20.2344 40.0605 20.3516 40.0527V24.4902H16.0547V19.4824H20.3516V15.7949C20.3516 11.5215 22.9609 9.19336 26.7734 9.19336C28.6016 9.19336 30.1719 9.32617 30.625 9.38867V13.8574H28C25.9297 13.8574 25.5234 14.8418 25.5234 16.2871V19.4746H30.4844L29.8359 24.4824H25.5234V39.2871C33.8828 36.8887 40 29.1934 40 20.0605Z" fill="#A2A6AA"/>
</svg>
