<svg width="40" height="40" viewBox="0 0 40 40" fill="none" xmlns="http://www.w3.org/2000/svg">
    <path d="M10.5068 21.537H12.0925V30.1193H13.5927V21.537H15.2078V20.1313H10.5068V21.537Z" fill="#A2A6AA"/>
    <path d="M23.1913 22.5856C22.6954 22.5856 22.2325 22.8565 21.7976 23.3926V20.1304H20.4492V30.1187H21.7976V29.3977C22.2489 29.9546 22.7113 30.2214 23.1913 30.2214C23.7278 30.2214 24.0887 29.9391 24.2688 29.385C24.3592 29.0695 24.4054 28.574 24.4054 27.8853V24.9218C24.4054 24.2171 24.3592 23.7253 24.2688 23.4261C24.0891 22.868 23.7274 22.5856 23.1913 22.5856ZM23.0563 27.9908C23.0563 28.6636 22.859 28.995 22.4695 28.995C22.2481 28.995 22.0226 28.889 21.7971 28.6632V24.1275C22.0226 23.9045 22.2481 23.7989 22.4695 23.7989C22.8586 23.7989 23.0563 24.1435 23.0563 24.8146V27.9908Z" fill="#A2A6AA"/>
    <path d="M17.9336 28.3638C17.6345 28.7866 17.3517 28.9948 17.0808 28.9948C16.9008 28.9948 16.7981 28.8889 16.7653 28.6793C16.753 28.636 16.753 28.4715 16.753 28.1556V22.6763H15.4043V28.5603C15.4043 29.0861 15.4497 29.4413 15.5234 29.6672C15.6588 30.0445 15.9584 30.2212 16.3921 30.2212C16.8885 30.2212 17.3975 29.9217 17.9336 29.3071V30.1189H19.2832V22.6763H17.9336V28.3638Z" fill="#A2A6AA"/>
    <path d="M19.0911 15.8014C19.5301 15.8014 19.7409 15.4532 19.7409 14.7575V11.5939C19.7409 10.8979 19.5301 10.5513 19.0911 10.5513C18.6516 10.5513 18.4404 10.8983 18.4404 11.5939V14.7575C18.4404 15.4536 18.6516 15.8014 19.0911 15.8014Z" fill="#A2A6AA"/>
    <path d="M20 0.0605469C8.95427 0.0605469 0 9.01482 0 20.0605C0 31.1063 8.95427 40.0605 20 40.0605C31.0457 40.0605 40 31.1063 40 20.0605C40 9.01482 31.0457 0.0605469 20 0.0605469ZM22.2245 9.41502H23.5834V14.9524C23.5834 15.272 23.5834 15.4377 23.5998 15.4823C23.6297 15.6935 23.7369 15.8015 23.9194 15.8015C24.1919 15.8015 24.478 15.5904 24.7804 15.1636V9.41502H26.143V16.9358H24.7804V16.1158C24.2377 16.7378 23.7205 17.0394 23.2233 17.0394C22.7847 17.0394 22.4818 16.8614 22.3452 16.4808C22.2699 16.2529 22.2245 15.8932 22.2245 15.3624V9.41502ZM17.0774 11.8674C17.0774 11.0633 17.2141 10.4757 17.5038 10.0955C17.8807 9.58116 18.4115 9.32418 19.0907 9.32418C19.7733 9.32418 20.3036 9.58116 20.6805 10.0955C20.9661 10.4753 21.1028 11.0633 21.1028 11.8674V14.5011C21.1028 15.3006 20.9661 15.8936 20.6805 16.2697C20.3036 16.7828 19.7733 17.0394 19.0907 17.0394C18.4115 17.0394 17.8807 16.7828 17.5038 16.2697C17.2141 15.8936 17.0774 15.3002 17.0774 14.5011V11.8674ZM13.433 6.84356L14.506 10.8067L15.5368 6.84356H17.0652L15.2471 12.8487V16.9363H13.7363V12.8487C13.5992 12.1244 13.2968 11.0633 12.8119 9.65564C12.4935 8.71896 12.1616 7.77942 11.8433 6.84356H13.433ZM30.7666 30.776C30.4933 31.9623 29.5231 32.838 28.3548 32.9686C25.5873 33.2775 22.7879 33.2792 19.9988 33.2775C17.2108 33.2792 14.4098 33.2775 11.6432 32.9686C10.4749 32.838 9.50425 31.9627 9.23171 30.776C8.84256 29.0864 8.84256 27.2413 8.84256 25.5014C8.84256 23.7614 8.84747 21.9167 9.23621 20.2267C9.50916 19.04 10.479 18.1643 11.6473 18.0342C14.4143 17.7252 17.2149 17.7236 20.0037 17.7252C22.7916 17.7236 25.5922 17.7252 28.3593 18.0342C29.5276 18.1647 30.4982 19.04 30.772 20.2267C31.1599 21.9167 31.1574 23.7614 31.1574 25.5014C31.1574 27.2413 31.1558 29.0864 30.7666 30.776Z" fill="#A2A6AA"/>
    <path d="M27.4868 22.5854C26.7969 22.5854 26.2612 22.8387 25.8717 23.3482C25.5856 23.7247 25.4551 24.3066 25.4551 25.1017V27.7087C25.4551 28.4997 25.6012 29.0857 25.8884 29.4585C26.2776 29.9667 26.8149 30.2208 27.5203 30.2208C28.2246 30.2208 28.7774 29.9545 29.1506 29.4139C29.3143 29.1749 29.4207 28.9044 29.4657 28.6057C29.4784 28.4707 29.4944 28.1715 29.4944 27.7365V27.5405H28.119C28.119 28.0807 28.1014 28.3806 28.0896 28.4539C28.0126 28.8144 27.8187 28.9945 27.4868 28.9945C27.0236 28.9945 26.7969 28.6507 26.7969 27.9624V26.6423H29.4944V25.1008C29.4944 24.3058 29.3597 23.7239 29.077 23.3474C28.7001 22.8392 28.1636 22.5854 27.4868 22.5854ZM28.1464 25.5203H26.7977V24.8316C26.7977 24.1433 27.024 23.7992 27.4745 23.7992C27.9206 23.7992 28.1464 24.1437 28.1464 24.8316V25.5203Z" fill="#A2A6AA"/>
</svg>
