<svg width="19" height="19" viewBox="0 0 19 19" fill="none" xmlns="http://www.w3.org/2000/svg">
<path d="M18.0648 16.5524L13.5427 12.1507C14.7054 10.8572 15.3425 9.22963 15.3425 7.53527C15.3425 3.57656 11.9011 0.355774 7.67124 0.355774C3.44139 0.355774 0 3.57656 0 7.53527C0 11.494 3.44139 14.7148 7.67124 14.7148C9.25919 14.7148 10.7724 14.2665 12.0662 13.4156L16.6226 17.8506C16.813 18.0357 17.0692 18.1378 17.3437 18.1378C17.6035 18.1378 17.85 18.0451 18.0371 17.8765C18.4347 17.5185 18.4473 16.9248 18.0648 16.5524ZM7.67124 2.22869C10.7978 2.22869 13.3413 4.60916 13.3413 7.53527C13.3413 10.4614 10.7978 12.8418 7.67124 12.8418C4.54471 12.8418 2.00119 10.4614 2.00119 7.53527C2.00119 4.60916 4.54471 2.22869 7.67124 2.22869Z" fill="black"/>
</svg>
