<svg width="52" height="38" viewBox="0 0 52 38" fill="none" xmlns="http://www.w3.org/2000/svg">
<path d="M4.33906 32.7188L5.16179 32.1503L5.16157 32.15L4.33906 32.7188ZM3.96406 5.57812L3.10384 5.0682L3.10305 5.06955L3.96406 5.57812ZM19.9484 5.57812L19.0902 6.09132L19.0921 6.09457L19.9484 5.57812ZM14.9094 8.74219L13.9829 9.11856L13.983 9.11877L14.9094 8.74219ZM9.14375 8.76562L8.22264 8.37629L8.22089 8.38049L9.14375 8.76562ZM9.16719 29.0156L10.081 28.6095L10.0791 28.6053L9.16719 29.0156ZM14.8156 28.9688L15.729 29.3758L15.7301 29.3735L14.8156 28.9688ZM21.6906 19.0547C21.6906 24.8294 20.8047 28.9928 19.1649 31.6826C17.5741 34.2921 15.2343 35.5859 12.0031 35.5859V37.5859C15.8969 37.5859 18.9009 35.9579 20.8726 32.7237C22.7953 29.5697 23.6906 24.9675 23.6906 19.0547H21.6906ZM12.0031 35.5859C8.97935 35.5859 6.74302 34.4389 5.16179 32.1503L3.51633 33.2872C5.49761 36.1548 8.37065 37.5859 12.0031 37.5859V35.5859ZM5.16157 32.15C3.30368 29.4632 2.29219 25.1332 2.29219 18.9844H0.292187C0.292187 25.273 1.31194 30.0993 3.51655 33.2875L5.16157 32.15ZM2.29219 18.9844C2.29219 13.1323 3.17771 8.87567 4.82508 6.0867L3.10305 5.06955C1.18792 8.31183 0.292187 12.9927 0.292187 18.9844H2.29219ZM4.82428 6.08805C6.43864 3.36469 8.789 2.03125 12.0031 2.03125V0.03125C8.09225 0.03125 5.08323 1.72906 3.10384 5.0682L4.82428 6.08805ZM12.0031 2.03125C15.1298 2.03125 17.4552 3.35695 19.0902 6.09132L20.8067 5.06493C18.8167 1.7368 15.8452 0.03125 12.0031 0.03125V2.03125ZM19.0921 6.09457C20.7822 8.89696 21.6906 13.1735 21.6906 19.0547H23.6906C23.6906 13.0296 22.7709 8.32179 20.8048 5.06168L19.0921 6.09457ZM17.0812 19.0547C17.0812 14.1031 16.6981 10.487 15.8358 8.36561L13.983 9.11877C14.6831 10.8411 15.0812 14.1001 15.0812 19.0547H17.0812ZM15.8358 8.36581C15.4855 7.50337 14.9997 6.77627 14.338 6.26396C13.6633 5.74165 12.869 5.49219 12.0031 5.49219V7.49219C12.4654 7.49219 12.8195 7.61773 13.1136 7.84541C13.4206 8.08311 13.7239 8.481 13.9829 9.11856L15.8358 8.36581ZM12.0031 5.49219C11.1539 5.49219 10.3776 5.75236 9.71672 6.2778C9.07131 6.79096 8.58617 7.51626 8.22265 8.3763L10.0648 9.15495C10.342 8.49937 10.6537 8.08795 10.9614 7.84329C11.2537 7.61093 11.5867 7.49219 12.0031 7.49219V5.49219ZM8.22089 8.38049C7.30914 10.5653 6.90156 14.1732 6.90156 19.0547H8.90156C8.90156 14.1862 9.32211 10.9347 10.0666 9.15076L8.22089 8.38049ZM6.90156 19.0547C6.90156 23.823 7.31535 27.3373 8.25527 29.426L10.0791 28.6053C9.33153 26.944 8.90156 23.8176 8.90156 19.0547H6.90156ZM8.25338 29.4218C8.61494 30.2353 9.10153 30.9191 9.74811 31.4C10.4064 31.8897 11.1722 32.125 12.0031 32.125V30.125C11.5684 30.125 11.2288 30.0088 10.9417 29.7953C10.643 29.5731 10.3444 29.2022 10.081 28.6095L8.25338 29.4218ZM12.0031 32.125C12.8297 32.125 13.5889 31.8791 14.2405 31.3795C14.8782 30.8906 15.3626 30.1981 15.729 29.3758L13.9022 28.5617C13.6281 29.1769 13.3234 29.5625 13.0236 29.7923C12.7377 30.0115 12.4109 30.125 12.0031 30.125V32.125ZM15.7301 29.3735C16.6664 27.258 17.0812 23.7651 17.0812 19.0547H15.0812C15.0812 23.7505 14.6523 26.867 13.9012 28.564L15.7301 29.3735ZM50.0516 36V37H51.0516V36H50.0516ZM27.9031 36L26.9079 35.9024L26.8003 37H27.9031V36ZM30.0125 29.4844L29.1566 28.9672L29.155 28.9699L30.0125 29.4844ZM37.1609 21.1875L37.8582 21.9043L37.8588 21.9037L37.1609 21.1875ZM42.9266 14.8125L42.076 14.2867L42.0756 14.2872L42.9266 14.8125ZM42.5984 8.17969L41.8566 8.85023L41.8633 8.85771L41.8702 8.86505L42.5984 8.17969ZM36.2234 8.13281L36.9431 8.82718L36.9448 8.82534L36.2234 8.13281ZM34.9344 12.3281L34.8308 13.3228L35.9344 13.4376V12.3281H34.9344ZM28.6297 11.6719L27.6346 11.5728L27.536 12.5634L28.5262 12.6665L28.6297 11.6719ZM32.1453 3.89062L31.4914 3.13409L31.4902 3.13513L32.1453 3.89062ZM47.2391 4.21875L46.553 4.94626L46.5535 4.94677L47.2391 4.21875ZM50.075 12.3984H51.075V12.3628L51.0725 12.3272L50.075 12.3984ZM48.9969 16.7812L48.1222 16.2965L48.1207 16.2993L48.9969 16.7812ZM42.5984 24.2578L43.2872 24.9828L43.2915 24.9787L42.5984 24.2578ZM38.8719 27.9609L39.6161 28.6289L39.6202 28.6242L38.8719 27.9609ZM37.5125 29.8828L36.6307 29.4112L35.8436 30.8828H37.5125V29.8828ZM50.0516 29.8828H51.0516V28.8828H50.0516V29.8828ZM50.0516 35H27.9031V37H50.0516V35ZM28.8984 36.0976C29.1191 33.8462 29.7785 31.818 30.87 29.9989L29.155 28.9699C27.9027 31.057 27.1559 33.3726 26.9079 35.9024L28.8984 36.0976ZM30.8684 30.0016C32.1134 27.9414 34.422 25.2472 37.8582 21.9043L36.4636 20.4707C32.9936 23.8465 30.5366 26.6836 29.1566 28.9672L30.8684 30.0016ZM37.8588 21.9037C40.9088 18.9315 42.9214 16.7247 43.7775 15.3378L42.0756 14.2872C41.3692 15.4316 39.538 17.4748 36.463 20.4713L37.8588 21.9037ZM43.7772 15.3383C44.4323 14.2785 44.7234 12.988 44.7234 11.5312H42.7234C42.7234 12.7307 42.4833 13.6277 42.076 14.2867L43.7772 15.3383ZM44.7234 11.5312C44.7234 9.92123 44.3004 8.52897 43.3266 7.49432L41.8702 8.86505C42.3965 9.42416 42.7234 10.2663 42.7234 11.5312H44.7234ZM43.3403 7.50915C42.37 6.43559 41.0147 5.96094 39.4344 5.96094V7.96094C40.6041 7.96094 41.3581 8.29879 41.8566 8.85023L43.3403 7.50915ZM39.4344 5.96094C37.8529 5.96094 36.4905 6.41069 35.502 7.44028L36.9448 8.82534C37.4564 8.29243 38.2346 7.96094 39.4344 7.96094V5.96094ZM35.5038 7.43844C34.3882 8.59461 33.9344 10.2989 33.9344 12.3281H35.9344C35.9344 10.5448 36.3399 9.45226 36.9431 8.82718L35.5038 7.43844ZM35.0379 11.3335L28.7332 10.6772L28.5262 12.6665L34.8308 13.3228L35.0379 11.3335ZM29.6248 11.7709C29.9513 8.49058 31.0475 6.16628 32.8005 4.64612L31.4902 3.13513C29.2431 5.08372 27.9956 7.94692 27.6346 11.5728L29.6248 11.7709ZM32.7993 4.64716C34.4149 3.2506 36.6441 2.5 39.5984 2.5V0.5C36.3028 0.5 33.5632 1.34315 31.4914 3.13409L32.7993 4.64716ZM39.5984 2.5C42.5695 2.5 44.8527 3.34277 46.553 4.94626L47.9252 3.49124C45.7817 1.46973 42.9711 0.5 39.5984 0.5V2.5ZM46.5535 4.94677C48.2094 6.50608 49.0516 8.51488 49.0516 11.0625H51.0516C51.0516 8.01637 50.0187 5.46267 47.9246 3.49073L46.5535 4.94677ZM49.0516 11.0625C49.0516 11.063 49.0516 11.0634 49.0516 11.0639C49.0516 11.0643 49.0516 11.0648 49.0516 11.0652C49.0516 11.0657 49.0516 11.0662 49.0516 11.0666C49.0516 11.0671 49.0516 11.0675 49.0516 11.068C49.0516 11.0684 49.0516 11.0689 49.0516 11.0694C49.0516 11.0698 49.0516 11.0703 49.0516 11.0707C49.0516 11.0712 49.0516 11.0717 49.0516 11.0721C49.0516 11.0726 49.0516 11.073 49.0516 11.0735C49.0516 11.0739 49.0516 11.0744 49.0516 11.0749C49.0516 11.0753 49.0516 11.0758 49.0516 11.0762C49.0516 11.0767 49.0516 11.0771 49.0516 11.0776C49.0516 11.0781 49.0516 11.0785 49.0516 11.079C49.0516 11.0794 49.0516 11.0799 49.0516 11.0803C49.0516 11.0808 49.0516 11.0813 49.0516 11.0817C49.0516 11.0822 49.0516 11.0826 49.0516 11.0831C49.0516 11.0835 49.0516 11.084 49.0516 11.0844C49.0516 11.0849 49.0516 11.0854 49.0516 11.0858C49.0516 11.0863 49.0516 11.0867 49.0516 11.0872C49.0516 11.0876 49.0516 11.0881 49.0516 11.0886C49.0516 11.089 49.0516 11.0895 49.0516 11.0899C49.0516 11.0904 49.0516 11.0908 49.0516 11.0913C49.0516 11.0918 49.0516 11.0922 49.0516 11.0927C49.0516 11.0931 49.0516 11.0936 49.0516 11.094C49.0516 11.0945 49.0516 11.095 49.0516 11.0954C49.0516 11.0959 49.0516 11.0963 49.0516 11.0968C49.0516 11.0972 49.0516 11.0977 49.0516 11.0981C49.0516 11.0986 49.0516 11.0991 49.0516 11.0995C49.0516 11.1 49.0516 11.1004 49.0516 11.1009C49.0516 11.1013 49.0516 11.1018 49.0516 11.1023C49.0516 11.1027 49.0516 11.1032 49.0516 11.1036C49.0516 11.1041 49.0516 11.1045 49.0516 11.105C49.0516 11.1054 49.0516 11.1059 49.0516 11.1064C49.0516 11.1068 49.0516 11.1073 49.0516 11.1077C49.0516 11.1082 49.0516 11.1086 49.0516 11.1091C49.0516 11.1095 49.0516 11.11 49.0516 11.1105C49.0516 11.1109 49.0516 11.1114 49.0516 11.1118C49.0516 11.1123 49.0516 11.1127 49.0516 11.1132C49.0516 11.1136 49.0516 11.1141 49.0516 11.1146C49.0516 11.115 49.0516 11.1155 49.0516 11.1159C49.0516 11.1164 49.0516 11.1168 49.0516 11.1173C49.0516 11.1177 49.0516 11.1182 49.0516 11.1187C49.0516 11.1191 49.0516 11.1196 49.0516 11.12C49.0516 11.1205 49.0516 11.1209 49.0516 11.1214C49.0516 11.1218 49.0516 11.1223 49.0516 11.1228C49.0516 11.1232 49.0516 11.1237 49.0516 11.1241C49.0516 11.1246 49.0516 11.125 49.0516 11.1255C49.0516 11.1259 49.0516 11.1264 49.0516 11.1268C49.0516 11.1273 49.0516 11.1278 49.0516 11.1282C49.0516 11.1287 49.0516 11.1291 49.0516 11.1296C49.0516 11.13 49.0516 11.1305 49.0516 11.1309C49.0516 11.1314 49.0516 11.1319 49.0516 11.1323C49.0516 11.1328 49.0516 11.1332 49.0516 11.1337C49.0516 11.1341 49.0516 11.1346 49.0516 11.135C49.0516 11.1355 49.0516 11.1359 49.0516 11.1364C49.0516 11.1369 49.0516 11.1373 49.0516 11.1378C49.0516 11.1382 49.0516 11.1387 49.0516 11.1391C49.0516 11.1396 49.0516 11.14 49.0516 11.1405C49.0516 11.1409 49.0516 11.1414 49.0516 11.1419C49.0516 11.1423 49.0516 11.1428 49.0516 11.1432C49.0516 11.1437 49.0516 11.1441 49.0516 11.1446C49.0516 11.145 49.0516 11.1455 49.0516 11.1459C49.0516 11.1464 49.0516 11.1468 49.0516 11.1473C49.0516 11.1478 49.0516 11.1482 49.0516 11.1487C49.0516 11.1491 49.0516 11.1496 49.0516 11.15C49.0516 11.1505 49.0516 11.1509 49.0516 11.1514C49.0516 11.1518 49.0516 11.1523 49.0516 11.1527C49.0516 11.1532 49.0516 11.1537 49.0516 11.1541C49.0516 11.1546 49.0516 11.155 49.0516 11.1555C49.0516 11.1559 49.0516 11.1564 49.0516 11.1568C49.0516 11.1573 49.0516 11.1577 49.0516 11.1582C49.0516 11.1586 49.0516 11.1591 49.0516 11.1596C49.0516 11.16 49.0516 11.1605 49.0516 11.1609C49.0516 11.1614 49.0516 11.1618 49.0516 11.1623C49.0516 11.1627 49.0516 11.1632 49.0516 11.1636C49.0516 11.1641 49.0516 11.1645 49.0516 11.165C49.0516 11.1654 49.0516 11.1659 49.0516 11.1664C49.0516 11.1668 49.0516 11.1673 49.0516 11.1677C49.0516 11.1682 49.0516 11.1686 49.0516 11.1691C49.0516 11.1695 49.0516 11.17 49.0516 11.1704C49.0516 11.1709 49.0516 11.1713 49.0516 11.1718C49.0516 11.1722 49.0516 11.1727 49.0516 11.1732C49.0516 11.1736 49.0516 11.1741 49.0516 11.1745C49.0516 11.175 49.0516 11.1754 49.0516 11.1759C49.0516 11.1763 49.0516 11.1768 49.0516 11.1772C49.0516 11.1777 49.0516 11.1781 49.0516 11.1786C49.0516 11.179 49.0516 11.1795 49.0516 11.1799C49.0516 11.1804 49.0516 11.1808 49.0516 11.1813C49.0516 11.1818 49.0516 11.1822 49.0516 11.1827C49.0516 11.1831 49.0516 11.1836 49.0516 11.184C49.0516 11.1845 49.0516 11.1849 49.0516 11.1854C49.0516 11.1858 49.0516 11.1863 49.0516 11.1867C49.0516 11.1872 49.0516 11.1876 49.0516 11.1881C49.0516 11.1885 49.0516 11.189 49.0516 11.1894C49.0516 11.1899 49.0516 11.1903 49.0516 11.1908C49.0516 11.1913 49.0516 11.1917 49.0516 11.1922C49.0516 11.1926 49.0516 11.1931 49.0516 11.1935C49.0516 11.194 49.0516 11.1944 49.0516 11.1949C49.0516 11.1953 49.0516 11.1958 49.0516 11.1962C49.0516 11.1967 49.0516 11.1971 49.0516 11.1976C49.0516 11.198 49.0516 11.1985 49.0516 11.1989C49.0516 11.1994 49.0516 11.1998 49.0516 11.2003C49.0516 11.2007 49.0516 11.2012 49.0516 11.2016C49.0516 11.2021 49.0516 11.2025 49.0516 11.203C49.0516 11.2035 49.0516 11.2039 49.0516 11.2044C49.0516 11.2048 49.0516 11.2053 49.0516 11.2057C49.0516 11.2062 49.0516 11.2066 49.0516 11.2071C49.0516 11.2075 49.0516 11.208 49.0516 11.2084C49.0516 11.2089 49.0516 11.2093 49.0516 11.2098C49.0516 11.2102 49.0516 11.2107 49.0516 11.2111C49.0516 11.2116 49.0516 11.212 49.0516 11.2125C49.0516 11.2129 49.0516 11.2134 49.0516 11.2138C49.0516 11.2143 49.0516 11.2147 49.0516 11.2152C49.0516 11.2156 49.0516 11.2161 49.0516 11.2165C49.0516 11.217 49.0516 11.2174 49.0516 11.2179C49.0516 11.2183 49.0516 11.2188 49.0516 11.2192C49.0516 11.2197 49.0516 11.2201 49.0516 11.2206C49.0516 11.221 49.0516 11.2215 49.0516 11.222C49.0516 11.2224 49.0516 11.2229 49.0516 11.2233C49.0516 11.2238 49.0516 11.2242 49.0516 11.2247C49.0516 11.2251 49.0516 11.2256 49.0516 11.226C49.0516 11.2265 49.0516 11.2269 49.0516 11.2274C49.0516 11.2278 49.0516 11.2283 49.0516 11.2287C49.0516 11.2292 49.0516 11.2296 49.0516 11.2301C49.0516 11.2305 49.0516 11.231 49.0516 11.2314C49.0516 11.2319 49.0516 11.2323 49.0516 11.2328C49.0516 11.2332 49.0516 11.2337 49.0516 11.2341C49.0516 11.2346 49.0516 11.235 49.0516 11.2355C49.0516 11.2359 49.0516 11.2364 49.0516 11.2368C49.0516 11.2373 49.0516 11.2377 49.0516 11.2382C49.0516 11.2386 49.0516 11.2391 49.0516 11.2395C49.0516 11.24 49.0516 11.2404 49.0516 11.2409C49.0516 11.2413 49.0516 11.2418 49.0516 11.2422C49.0516 11.2427 49.0516 11.2431 49.0516 11.2436C49.0516 11.244 49.0516 11.2445 49.0516 11.2449C49.0516 11.2454 49.0516 11.2458 49.0516 11.2463C49.0516 11.2467 49.0516 11.2472 49.0516 11.2476C49.0516 11.2481 49.0516 11.2485 49.0516 11.249C49.0516 11.2494 49.0516 11.2499 49.0516 11.2503C49.0516 11.2508 49.0516 11.2512 49.0516 11.2517C49.0516 11.2521 49.0516 11.2526 49.0516 11.253C49.0516 11.2535 49.0516 11.2539 49.0516 11.2544C49.0516 11.2548 49.0516 11.2553 49.0516 11.2557C49.0516 11.2562 49.0516 11.2566 49.0516 11.2571C49.0516 11.2575 49.0516 11.258 49.0516 11.2584C49.0516 11.2588 49.0516 11.2593 49.0516 11.2597C49.0516 11.2602 49.0516 11.2606 49.0516 11.2611C49.0516 11.2615 49.0516 11.262 49.0516 11.2624C49.0516 11.2629 49.0516 11.2633 49.0516 11.2638C49.0516 11.2642 49.0516 11.2647 49.0516 11.2651C49.0516 11.2656 49.0516 11.266 49.0516 11.2665C49.0516 11.2669 49.0516 11.2674 49.0516 11.2678C49.0516 11.2683 49.0516 11.2687 49.0516 11.2692C49.0516 11.2696 49.0516 11.2701 49.0516 11.2705C49.0516 11.271 49.0516 11.2714 49.0516 11.2719C49.0516 11.2723 49.0516 11.2728 49.0516 11.2732C49.0516 11.2737 49.0516 11.2741 49.0516 11.2746C49.0516 11.275 49.0516 11.2755 49.0516 11.2759C49.0516 11.2764 49.0516 11.2768 49.0516 11.2772C49.0516 11.2777 49.0516 11.2781 49.0516 11.2786C49.0516 11.279 49.0516 11.2795 49.0516 11.2799C49.0516 11.2804 49.0516 11.2808 49.0516 11.2813C49.0516 11.2817 49.0516 11.2822 49.0516 11.2826C49.0516 11.2831 49.0516 11.2835 49.0516 11.284C49.0516 11.2844 49.0516 11.2849 49.0516 11.2853C49.0516 11.2858 49.0516 11.2862 49.0516 11.2867C49.0516 11.2871 49.0516 11.2876 49.0516 11.288C49.0516 11.2885 49.0516 11.2889 49.0516 11.2893C49.0516 11.2898 49.0516 11.2902 49.0516 11.2907C49.0516 11.2911 49.0516 11.2916 49.0516 11.292C49.0516 11.2925 49.0516 11.2929 49.0516 11.2934C49.0516 11.2938 49.0516 11.2943 49.0516 11.2947C49.0516 11.2952 49.0516 11.2956 49.0516 11.2961C49.0516 11.2965 49.0516 11.297 49.0516 11.2974C49.0516 11.2979 49.0516 11.2983 49.0516 11.2987C49.0516 11.2992 49.0516 11.2996 49.0516 11.3001C49.0516 11.3005 49.0516 11.301 49.0516 11.3014C49.0516 11.3019 49.0516 11.3023 49.0516 11.3028C49.0516 11.3032 49.0516 11.3037 49.0516 11.3041C49.0516 11.3046 49.0516 11.305 49.0516 11.3055C49.0516 11.3059 49.0516 11.3063 49.0516 11.3068C49.0516 11.3072 49.0516 11.3077 49.0516 11.3081C49.0516 11.3086 49.0516 11.309 49.0516 11.3095C49.0516 11.3099 49.0516 11.3104 49.0516 11.3108C49.0516 11.3113 49.0516 11.3117 49.0516 11.3122C49.0516 11.3126 49.0516 11.3131 49.0516 11.3135C49.0516 11.3139 49.0516 11.3144 49.0516 11.3148C49.0516 11.3153 49.0516 11.3157 49.0516 11.3162C49.0516 11.3166 49.0516 11.3171 49.0516 11.3175C49.0516 11.318 49.0516 11.3184 49.0516 11.3189C49.0516 11.3193 49.0516 11.3198 49.0516 11.3202C49.0516 11.3206 49.0516 11.3211 49.0516 11.3215C49.0516 11.322 49.0516 11.3224 49.0516 11.3229C49.0516 11.3233 49.0516 11.3238 49.0516 11.3242C49.0516 11.3247 49.0516 11.3251 49.0516 11.3256C49.0516 11.326 49.0516 11.3264 49.0516 11.3269C49.0516 11.3273 49.0516 11.3278 49.0516 11.3282C49.0516 11.3287 49.0516 11.3291 49.0516 11.3296C49.0516 11.33 49.0516 11.3305 49.0516 11.3309C49.0516 11.3314 49.0516 11.3318 49.0516 11.3322C49.0516 11.3327 49.0516 11.3331 49.0516 11.3336C49.0516 11.334 49.0516 11.3345 49.0516 11.3349C49.0516 11.3354 49.0516 11.3358 49.0516 11.3363C49.0516 11.3367 49.0516 11.3371 49.0516 11.3376C49.0516 11.338 49.0516 11.3385 49.0516 11.3389C49.0516 11.3394 49.0516 11.3398 49.0516 11.3403C49.0516 11.3407 49.0516 11.3412 49.0516 11.3416C49.0516 11.342 49.0516 11.3425 49.0516 11.3429C49.0516 11.3434 49.0516 11.3438 49.0516 11.3443C49.0516 11.3447 49.0516 11.3452 49.0516 11.3456C49.0516 11.3461 49.0516 11.3465 49.0516 11.3469C49.0516 11.3474 49.0516 11.3478 49.0516 11.3483C49.0516 11.3487 49.0516 11.3492 49.0516 11.3496C49.0516 11.3501 49.0516 11.3505 49.0516 11.351C49.0516 11.3514 49.0516 11.3518 49.0516 11.3523C49.0516 11.3527 49.0516 11.3532 49.0516 11.3536C49.0516 11.3541 49.0516 11.3545 49.0516 11.355C49.0516 11.3554 49.0516 11.3558 49.0516 11.3563C49.0516 11.3567 49.0516 11.3572 49.0516 11.3576C49.0516 11.3581 49.0516 11.3585 49.0516 11.359C49.0516 11.3594 49.0516 11.3599 49.0516 11.3603C49.0516 11.3607 49.0516 11.3612 49.0516 11.3616C49.0516 11.3621 49.0516 11.3625 49.0516 11.363C49.0516 11.3634 49.0516 11.3639 49.0516 11.3643C49.0516 11.3647 49.0516 11.3652 49.0516 11.3656C49.0516 11.3661 49.0516 11.3665 49.0516 11.367C49.0516 11.3674 49.0516 11.3679 49.0516 11.3683C49.0516 11.3687 49.0516 11.3692 49.0516 11.3696C49.0516 11.3701 49.0516 11.3705 49.0516 11.371C49.0516 11.3714 49.0516 11.3719 49.0516 11.3723C49.0516 11.3727 49.0516 11.3732 49.0516 11.3736C49.0516 11.3741 49.0516 11.3745 49.0516 11.375C49.0516 11.3754 49.0516 11.3758 49.0516 11.3763C49.0516 11.3767 49.0516 11.3772 49.0516 11.3776C49.0516 11.3781 49.0516 11.3785 49.0516 11.379C49.0516 11.3794 49.0516 11.3798 49.0516 11.3803C49.0516 11.3807 49.0516 11.3812 49.0516 11.3816C49.0516 11.3821 49.0516 11.3825 49.0516 11.3829C49.0516 11.3834 49.0516 11.3838 49.0516 11.3843C49.0516 11.3847 49.0516 11.3852 49.0516 11.3856C49.0516 11.3861 49.0516 11.3865 49.0516 11.3869C49.0516 11.3874 49.0516 11.3878 49.0516 11.3883C49.0516 11.3887 49.0516 11.3892 49.0516 11.3896C49.0516 11.39 49.0516 11.3905 49.0516 11.3909C49.0516 11.3914 49.0516 11.3918 49.0516 11.3923C49.0516 11.3927 49.0516 11.3931 49.0516 11.3936C49.0516 11.394 49.0516 11.3945 49.0516 11.3949C49.0516 11.3954 49.0516 11.3958 49.0516 11.3962C49.0516 11.3967 49.0516 11.3971 49.0516 11.3976C49.0516 11.398 49.0516 11.3985 49.0516 11.3989C49.0516 11.3993 49.0516 11.3998 49.0516 11.4002C49.0516 11.4007 49.0516 11.4011 49.0516 11.4016C49.0516 11.402 49.0516 11.4024 49.0516 11.4029C49.0516 11.4033 49.0516 11.4038 49.0516 11.4042C49.0516 11.4047 49.0516 11.4051 49.0516 11.4055C49.0516 11.406 49.0516 11.4064 49.0516 11.4069C49.0516 11.4073 49.0516 11.4078 49.0516 11.4082C49.0516 11.4086 49.0516 11.4091 49.0516 11.4095C49.0516 11.41 49.0516 11.4104 49.0516 11.4109C49.0516 11.4113 49.0516 11.4117 49.0516 11.4122C49.0516 11.4126 49.0516 11.4131 49.0516 11.4135C49.0516 11.414 49.0516 11.4144 49.0516 11.4148C49.0516 11.4153 49.0516 11.4157 49.0516 11.4162C49.0516 11.4166 49.0516 11.417 49.0516 11.4175C49.0516 11.4179 49.0516 11.4184 49.0516 11.4188C49.0516 11.4193 49.0516 11.4197 49.0516 11.4201C49.0516 11.4206 49.0516 11.421 49.0516 11.4215C49.0516 11.4219 49.0516 11.4224 49.0516 11.4228C49.0516 11.4232 49.0516 11.4237 49.0516 11.4241C49.0516 11.4246 49.0516 11.425 49.0516 11.4254C49.0516 11.4259 49.0516 11.4263 49.0516 11.4268C49.0516 11.4272 49.0516 11.4277 49.0516 11.4281C49.0516 11.4285 49.0516 11.429 49.0516 11.4294C49.0516 11.4299 49.0516 11.4303 49.0516 11.4307C49.0516 11.4312 49.0516 11.4316 49.0516 11.4321C49.0516 11.4325 49.0516 11.433 49.0516 11.4334C49.0516 11.4338 49.0516 11.4343 49.0516 11.4347C49.0516 11.4352 49.0516 11.4356 49.0516 11.436C49.0516 11.4365 49.0516 11.4369 49.0516 11.4374C49.0516 11.4378 49.0516 11.4382 49.0516 11.4387C49.0516 11.4391 49.0516 11.4396 49.0516 11.44C49.0516 11.4405 49.0516 11.4409 49.0516 11.4413C49.0516 11.4418 49.0516 11.4422 49.0516 11.4427C49.0516 11.4431 49.0516 11.4435 49.0516 11.444C49.0516 11.4444 49.0516 11.4449 49.0516 11.4453C49.0516 11.4457 49.0516 11.4462 49.0516 11.4466C49.0516 11.4471 49.0516 11.4475 49.0516 11.4479C49.0516 11.4484 49.0516 11.4488 49.0516 11.4493C49.0516 11.4497 49.0516 11.4502 49.0516 11.4506C49.0516 11.451 49.0516 11.4515 49.0516 11.4519C49.0516 11.4524 49.0516 11.4528 49.0516 11.4532C49.0516 11.4537 49.0516 11.4541 49.0516 11.4546C49.0516 11.455 49.0516 11.4554 49.0516 11.4559C49.0516 11.4563 49.0516 11.4568 49.0516 11.4572C49.0516 11.4576 49.0516 11.4581 49.0516 11.4585C49.0516 11.459 49.0516 11.4594 49.0516 11.4598C49.0516 11.4603 49.0516 11.4607 49.0516 11.4612C49.0516 11.4616 49.0516 11.462 49.0516 11.4625C49.0516 11.4629 49.0516 11.4634 49.0516 11.4638C49.0516 11.4642 49.0516 11.4647 49.0516 11.4651C49.0516 11.4656 49.0516 11.466 49.0516 11.4664C49.0516 11.4669 49.0516 11.4673 49.0516 11.4678C49.0516 11.4682 49.0516 11.4686 49.0516 11.4691C49.0516 11.4695 49.0516 11.47 49.0516 11.4704C49.0516 11.4708 49.0516 11.4713 49.0516 11.4717C49.0516 11.4722 49.0516 11.4726 49.0516 11.473C49.0516 11.4735 49.0516 11.4739 49.0516 11.4744C49.0516 11.4748 49.0516 11.4752 49.0516 11.4757C49.0516 11.4761 49.0516 11.4766 49.0516 11.477C49.0516 11.4774 49.0516 11.4779 49.0516 11.4783C49.0516 11.4787 49.0516 11.4792 49.0516 11.4796C49.0516 11.4801 49.0516 11.4805 49.0516 11.4809C49.0516 11.4814 49.0516 11.4818 49.0516 11.4823C49.0516 11.4827 49.0516 11.4831 49.0516 11.4836C49.0516 11.484 49.0516 11.4845 49.0516 11.4849C49.0516 11.4853 49.0516 11.4858 49.0516 11.4862C49.0516 11.4867 49.0516 11.4871 49.0516 11.4875C49.0516 11.488 49.0516 11.4884 49.0516 11.4888C49.0516 11.4893 49.0516 11.4897 49.0516 11.4902C49.0516 11.4906 49.0516 11.491 49.0516 11.4915C49.0516 11.4919 49.0516 11.4924 49.0516 11.4928C49.0516 11.4932 49.0516 11.4937 49.0516 11.4941C49.0516 11.4946 49.0516 11.495 49.0516 11.4954C49.0516 11.4959 49.0516 11.4963 49.0516 11.4967C49.0516 11.4972 49.0516 11.4976 49.0516 11.4981C49.0516 11.4985 49.0516 11.4989 49.0516 11.4994C49.0516 11.4998 49.0516 11.5003 49.0516 11.5007C49.0516 11.5011 49.0516 11.5016 49.0516 11.502C49.0516 11.5024 49.0516 11.5029 49.0516 11.5033C49.0516 11.5038 49.0516 11.5042 49.0516 11.5046C49.0516 11.5051 49.0516 11.5055 49.0516 11.5059C49.0516 11.5064 49.0516 11.5068 49.0516 11.5073C49.0516 11.5077 49.0516 11.5081 49.0516 11.5086C49.0516 11.509 49.0516 11.5095 49.0516 11.5099C49.0516 11.5103 49.0516 11.5108 49.0516 11.5112C49.0516 11.5116 49.0516 11.5121 49.0516 11.5125C49.0516 11.513 49.0516 11.5134 49.0516 11.5138C49.0516 11.5143 49.0516 11.5147 49.0516 11.5151C49.0516 11.5156 49.0516 11.516 49.0516 11.5165C49.0516 11.5169 49.0516 11.5173 49.0516 11.5178C49.0516 11.5182 49.0516 11.5186 49.0516 11.5191C49.0516 11.5195 49.0516 11.52 49.0516 11.5204C49.0516 11.5208 49.0516 11.5213 49.0516 11.5217C49.0516 11.5221 49.0516 11.5226 49.0516 11.523C49.0516 11.5235 49.0516 11.5239 49.0516 11.5243C49.0516 11.5248 49.0516 11.5252 49.0516 11.5256C49.0516 11.5261 49.0516 11.5265 49.0516 11.527C49.0516 11.5274 49.0516 11.5278 49.0516 11.5283C49.0516 11.5287 49.0516 11.5291 49.0516 11.5296C49.0516 11.53 49.0516 11.5305 49.0516 11.5309C49.0516 11.5313 49.0516 11.5318 49.0516 11.5322C49.0516 11.5326 49.0516 11.5331 49.0516 11.5335C49.0516 11.5339 49.0516 11.5344 49.0516 11.5348C49.0516 11.5353 49.0516 11.5357 49.0516 11.5361C49.0516 11.5366 49.0516 11.537 49.0516 11.5374C49.0516 11.5379 49.0516 11.5383 49.0516 11.5388C49.0516 11.5392 49.0516 11.5396 49.0516 11.5401C49.0516 11.5405 49.0516 11.5409 49.0516 11.5414C49.0516 11.5418 49.0516 11.5422 49.0516 11.5427C49.0516 11.5431 49.0516 11.5436 49.0516 11.544C49.0516 11.5444 49.0516 11.5449 49.0516 11.5453C49.0516 11.5457 49.0516 11.5462 49.0516 11.5466C49.0516 11.547 49.0516 11.5475 49.0516 11.5479C49.0516 11.5484 49.0516 11.5488 49.0516 11.5492C49.0516 11.5497 49.0516 11.5501 49.0516 11.5505C49.0516 11.551 49.0516 11.5514 49.0516 11.5518C49.0516 11.5523 49.0516 11.5527 49.0516 11.5531C49.0516 11.5536 49.0516 11.554 49.0516 11.5545C49.0516 11.5549 49.0516 11.5553 49.0516 11.5558C49.0516 11.5562 49.0516 11.5566 49.0516 11.5571C49.0516 11.5575 49.0516 11.5579 49.0516 11.5584C49.0516 11.5588 49.0516 11.5592 49.0516 11.5597C49.0516 11.5601 49.0516 11.5606 49.0516 11.561C49.0516 11.5614 49.0516 11.5619 49.0516 11.5623C49.0516 11.5627 49.0516 11.5632 49.0516 11.5636C49.0516 11.564 49.0516 11.5645 49.0516 11.5649C49.0516 11.5653 49.0516 11.5658 49.0516 11.5662C49.0516 11.5667 49.0516 11.5671 49.0516 11.5675C49.0516 11.568 49.0516 11.5684 49.0516 11.5688C49.0516 11.5693 49.0516 11.5697 49.0516 11.5701C49.0516 11.5706 49.0516 11.571 49.0516 11.5714C49.0516 11.5719 49.0516 11.5723 49.0516 11.5727C49.0516 11.5732 49.0516 11.5736 49.0516 11.5741C49.0516 11.5745 49.0516 11.5749 49.0516 11.5754C49.0516 11.5758 49.0516 11.5762 49.0516 11.5767C49.0516 11.5771 49.0516 11.5775 49.0516 11.578C49.0516 11.5784 49.0516 11.5788 49.0516 11.5793C49.0516 11.5797 49.0516 11.5801 49.0516 11.5806C49.0516 11.581 49.0516 11.5814 49.0516 11.5819C49.0516 11.5823 49.0516 11.5827 49.0516 11.5832C49.0516 11.5836 49.0516 11.5841 49.0516 11.5845C49.0516 11.5849 49.0516 11.5854 49.0516 11.5858C49.0516 11.5862 49.0516 11.5867 49.0516 11.5871C49.0516 11.5875 49.0516 11.588 49.0516 11.5884C49.0516 11.5888 49.0516 11.5893 49.0516 11.5897C49.0516 11.5901 49.0516 11.5906 49.0516 11.591C49.0516 11.5914 49.0516 11.5919 49.0516 11.5923C49.0516 11.5927 49.0516 11.5932 49.0516 11.5936C49.0516 11.594 49.0516 11.5945 49.0516 11.5949C49.0516 11.5953 49.0516 11.5958 49.0516 11.5962C49.0516 11.5966 49.0516 11.5971 49.0516 11.5975C49.0516 11.5979 49.0516 11.5984 49.0516 11.5988C49.0516 11.5992 49.0516 11.5997 49.0516 11.6001C49.0516 11.6005 49.0516 11.601 49.0516 11.6014C49.0516 11.6018 49.0516 11.6023 49.0516 11.6027C49.0516 11.6032 49.0516 11.6036 49.0516 11.604C49.0516 11.6045 49.0516 11.6049 49.0516 11.6053C49.0516 11.6058 49.0516 11.6062 49.0516 11.6066C49.0516 11.6071 49.0516 11.6075 49.0516 11.6079C49.0516 11.6084 49.0516 11.6088 49.0516 11.6092C49.0516 11.6097 49.0516 11.6101 49.0516 11.6105C49.0516 11.611 49.0516 11.6114 49.0516 11.6118C49.0516 11.6123 49.0516 11.6127 49.0516 11.6131C49.0516 11.6136 49.0516 11.614 49.0516 11.6144C49.0516 11.6149 49.0516 11.6153 49.0516 11.6157C49.0516 11.6162 49.0516 11.6166 49.0516 11.617C49.0516 11.6175 49.0516 11.6179 49.0516 11.6183C49.0516 11.6187 49.0516 11.6192 49.0516 11.6196C49.0516 11.62 49.0516 11.6205 49.0516 11.6209C49.0516 11.6213 49.0516 11.6218 49.0516 11.6222C49.0516 11.6226 49.0516 11.6231 49.0516 11.6235C49.0516 11.6239 49.0516 11.6244 49.0516 11.6248C49.0516 11.6252 49.0516 11.6257 49.0516 11.6261C49.0516 11.6265 49.0516 11.627 49.0516 11.6274C49.0516 11.6278 49.0516 11.6283 49.0516 11.6287C49.0516 11.6291 49.0516 11.6296 49.0516 11.63C49.0516 11.6304 49.0516 11.6309 49.0516 11.6313C49.0516 11.6317 49.0516 11.6322 49.0516 11.6326C49.0516 11.633 49.0516 11.6335 49.0516 11.6339C49.0516 11.6343 49.0516 11.6348 49.0516 11.6352C49.0516 11.6356 49.0516 11.6361 49.0516 11.6365C49.0516 11.6369 49.0516 11.6373 49.0516 11.6378C49.0516 11.6382 49.0516 11.6386 49.0516 11.6391C49.0516 11.6395 49.0516 11.6399 49.0516 11.6404C49.0516 11.6408 49.0516 11.6412 49.0516 11.6417C49.0516 11.6421 49.0516 11.6425 49.0516 11.643C49.0516 11.6434 49.0516 11.6438 49.0516 11.6443C49.0516 11.6447 49.0516 11.6451 49.0516 11.6456C49.0516 11.646 49.0516 11.6464 49.0516 11.6468C49.0516 11.6473 49.0516 11.6477 49.0516 11.6481C49.0516 11.6486 49.0516 11.649 49.0516 11.6494C49.0516 11.6499 49.0516 11.6503 49.0516 11.6507C49.0516 11.6512 49.0516 11.6516 49.0516 11.652C49.0516 11.6525 49.0516 11.6529 49.0516 11.6533C49.0516 11.6538 49.0516 11.6542 49.0516 11.6546C49.0516 11.655 49.0516 11.6555 49.0516 11.6559C49.0516 11.6563 49.0516 11.6568 49.0516 11.6572C49.0516 11.6576 49.0516 11.6581 49.0516 11.6585C49.0516 11.6589 49.0516 11.6594 49.0516 11.6598C49.0516 11.6602 49.0516 11.6607 49.0516 11.6611C49.0516 11.6615 49.0516 11.6619 49.0516 11.6624C49.0516 11.6628 49.0516 11.6632 49.0516 11.6637C49.0516 11.6641 49.0516 11.6645 49.0516 11.665C49.0516 11.6654 49.0516 11.6658 49.0516 11.6663C49.0516 11.6667 49.0516 11.6671 49.0516 11.6675C49.0516 11.668 49.0516 11.6684 49.0516 11.6688C49.0516 11.6693 49.0516 11.6697 49.0516 11.6701C49.0516 11.6706 49.0516 11.671 49.0516 11.6714C49.0516 11.6719 49.0516 11.6723 49.0516 11.6727C49.0516 11.6731 49.0516 11.6736 49.0516 11.674C49.0516 11.6744 49.0516 11.6749 49.0516 11.6753C49.0516 11.6757 49.0516 11.6762 49.0516 11.6766C49.0516 11.677 49.0516 11.6774 49.0516 11.6779C49.0516 11.6783 49.0516 11.6787 49.0516 11.6792C49.0516 11.6796 49.0516 11.68 49.0516 11.6805C49.0516 11.6809 49.0516 11.6813 49.0516 11.6817C49.0516 11.6822 49.0516 11.6826 49.0516 11.683C49.0516 11.6835 49.0516 11.6839 49.0516 11.6843C49.0516 11.6848 49.0516 11.6852 49.0516 11.6856C49.0516 11.686 49.0516 11.6865 49.0516 11.6869C49.0516 11.6873 49.0516 11.6878 49.0516 11.6882C49.0516 11.6886 49.0516 11.6891 49.0516 11.6895C49.0516 11.6899 49.0516 11.6903 49.0516 11.6908C49.0516 11.6912 49.0516 11.6916 49.0516 11.6921C49.0516 11.6925 49.0516 11.6929 49.0516 11.6934C49.0516 11.6938 49.0516 11.6942 49.0516 11.6946C49.0516 11.6951 49.0516 11.6955 49.0516 11.6959C49.0516 11.6964 49.0516 11.6968 49.0516 11.6972C49.0516 11.6976 49.0516 11.6981 49.0516 11.6985C49.0516 11.6989 49.0516 11.6994 49.0516 11.6998C49.0516 11.7002 49.0516 11.7007 49.0516 11.7011C49.0516 11.7015 49.0516 11.7019 49.0516 11.7024C49.0516 11.7028 49.0516 11.7032 49.0516 11.7037C49.0516 11.7041 49.0516 11.7045 49.0516 11.7049C49.0516 11.7054 49.0516 11.7058 49.0516 11.7062C49.0516 11.7067 49.0516 11.7071 49.0516 11.7075C49.0516 11.7079 49.0516 11.7084 49.0516 11.7088C49.0516 11.7092 49.0516 11.7097 49.0516 11.7101C49.0516 11.7105 49.0516 11.7109 49.0516 11.7114C49.0516 11.7118 49.0516 11.7122 49.0516 11.7127C49.0516 11.7131 49.0516 11.7135 49.0516 11.7139C49.0516 11.7144 49.0516 11.7148 49.0516 11.7152C49.0516 11.7157 49.0516 11.7161 49.0516 11.7165C49.0516 11.7169 49.0516 11.7174 49.0516 11.7178C49.0516 11.7182 49.0516 11.7187 49.0516 11.7191C49.0516 11.7195 49.0516 11.7199 49.0516 11.7204C49.0516 11.7208 49.0516 11.7212 49.0516 11.7217C49.0516 11.7221 49.0516 11.7225 49.0516 11.7229C49.0516 11.7234 49.0516 11.7238 49.0516 11.7242C49.0516 11.7247 49.0516 11.7251 49.0516 11.7255C49.0516 11.7259 49.0516 11.7264 49.0516 11.7268C49.0516 11.7272 49.0516 11.7276 49.0516 11.7281C49.0516 11.7285 49.0516 11.7289 49.0516 11.7294C49.0516 11.7298 49.0516 11.7302 49.0516 11.7306C49.0516 11.7311 49.0516 11.7315 49.0516 11.7319C49.0516 11.7324 49.0516 11.7328 49.0516 11.7332C49.0516 11.7336 49.0516 11.7341 49.0516 11.7345C49.0516 11.7349 49.0516 11.7353 49.0516 11.7358C49.0516 11.7362 49.0516 11.7366 49.0516 11.7371C49.0516 11.7375 49.0516 11.7379 49.0516 11.7383C49.0516 11.7388 49.0516 11.7392 49.0516 11.7396C49.0516 11.7401 49.0516 11.7405 49.0516 11.7409C49.0516 11.7413 49.0516 11.7418 49.0516 11.7422H51.0516C51.0516 11.7418 51.0516 11.7413 51.0516 11.7409C51.0516 11.7405 51.0516 11.7401 51.0516 11.7396C51.0516 11.7392 51.0516 11.7388 51.0516 11.7383C51.0516 11.7379 51.0516 11.7375 51.0516 11.7371C51.0516 11.7366 51.0516 11.7362 51.0516 11.7358C51.0516 11.7353 51.0516 11.7349 51.0516 11.7345C51.0516 11.7341 51.0516 11.7336 51.0516 11.7332C51.0516 11.7328 51.0516 11.7324 51.0516 11.7319C51.0516 11.7315 51.0516 11.7311 51.0516 11.7306C51.0516 11.7302 51.0516 11.7298 51.0516 11.7294C51.0516 11.7289 51.0516 11.7285 51.0516 11.7281C51.0516 11.7276 51.0516 11.7272 51.0516 11.7268C51.0516 11.7264 51.0516 11.7259 51.0516 11.7255C51.0516 11.7251 51.0516 11.7247 51.0516 11.7242C51.0516 11.7238 51.0516 11.7234 51.0516 11.7229C51.0516 11.7225 51.0516 11.7221 51.0516 11.7217C51.0516 11.7212 51.0516 11.7208 51.0516 11.7204C51.0516 11.7199 51.0516 11.7195 51.0516 11.7191C51.0516 11.7187 51.0516 11.7182 51.0516 11.7178C51.0516 11.7174 51.0516 11.7169 51.0516 11.7165C51.0516 11.7161 51.0516 11.7157 51.0516 11.7152C51.0516 11.7148 51.0516 11.7144 51.0516 11.7139C51.0516 11.7135 51.0516 11.7131 51.0516 11.7127C51.0516 11.7122 51.0516 11.7118 51.0516 11.7114C51.0516 11.7109 51.0516 11.7105 51.0516 11.7101C51.0516 11.7097 51.0516 11.7092 51.0516 11.7088C51.0516 11.7084 51.0516 11.7079 51.0516 11.7075C51.0516 11.7071 51.0516 11.7067 51.0516 11.7062C51.0516 11.7058 51.0516 11.7054 51.0516 11.7049C51.0516 11.7045 51.0516 11.7041 51.0516 11.7037C51.0516 11.7032 51.0516 11.7028 51.0516 11.7024C51.0516 11.7019 51.0516 11.7015 51.0516 11.7011C51.0516 11.7007 51.0516 11.7002 51.0516 11.6998C51.0516 11.6994 51.0516 11.6989 51.0516 11.6985C51.0516 11.6981 51.0516 11.6976 51.0516 11.6972C51.0516 11.6968 51.0516 11.6964 51.0516 11.6959C51.0516 11.6955 51.0516 11.6951 51.0516 11.6946C51.0516 11.6942 51.0516 11.6938 51.0516 11.6934C51.0516 11.6929 51.0516 11.6925 51.0516 11.6921C51.0516 11.6916 51.0516 11.6912 51.0516 11.6908C51.0516 11.6903 51.0516 11.6899 51.0516 11.6895C51.0516 11.6891 51.0516 11.6886 51.0516 11.6882C51.0516 11.6878 51.0516 11.6873 51.0516 11.6869C51.0516 11.6865 51.0516 11.686 51.0516 11.6856C51.0516 11.6852 51.0516 11.6848 51.0516 11.6843C51.0516 11.6839 51.0516 11.6835 51.0516 11.683C51.0516 11.6826 51.0516 11.6822 51.0516 11.6817C51.0516 11.6813 51.0516 11.6809 51.0516 11.6805C51.0516 11.68 51.0516 11.6796 51.0516 11.6792C51.0516 11.6787 51.0516 11.6783 51.0516 11.6779C51.0516 11.6774 51.0516 11.677 51.0516 11.6766C51.0516 11.6762 51.0516 11.6757 51.0516 11.6753C51.0516 11.6749 51.0516 11.6744 51.0516 11.674C51.0516 11.6736 51.0516 11.6731 51.0516 11.6727C51.0516 11.6723 51.0516 11.6719 51.0516 11.6714C51.0516 11.671 51.0516 11.6706 51.0516 11.6701C51.0516 11.6697 51.0516 11.6693 51.0516 11.6688C51.0516 11.6684 51.0516 11.668 51.0516 11.6675C51.0516 11.6671 51.0516 11.6667 51.0516 11.6663C51.0516 11.6658 51.0516 11.6654 51.0516 11.665C51.0516 11.6645 51.0516 11.6641 51.0516 11.6637C51.0516 11.6632 51.0516 11.6628 51.0516 11.6624C51.0516 11.6619 51.0516 11.6615 51.0516 11.6611C51.0516 11.6607 51.0516 11.6602 51.0516 11.6598C51.0516 11.6594 51.0516 11.6589 51.0516 11.6585C51.0516 11.6581 51.0516 11.6576 51.0516 11.6572C51.0516 11.6568 51.0516 11.6563 51.0516 11.6559C51.0516 11.6555 51.0516 11.655 51.0516 11.6546C51.0516 11.6542 51.0516 11.6538 51.0516 11.6533C51.0516 11.6529 51.0516 11.6525 51.0516 11.652C51.0516 11.6516 51.0516 11.6512 51.0516 11.6507C51.0516 11.6503 51.0516 11.6499 51.0516 11.6494C51.0516 11.649 51.0516 11.6486 51.0516 11.6481C51.0516 11.6477 51.0516 11.6473 51.0516 11.6468C51.0516 11.6464 51.0516 11.646 51.0516 11.6456C51.0516 11.6451 51.0516 11.6447 51.0516 11.6443C51.0516 11.6438 51.0516 11.6434 51.0516 11.643C51.0516 11.6425 51.0516 11.6421 51.0516 11.6417C51.0516 11.6412 51.0516 11.6408 51.0516 11.6404C51.0516 11.6399 51.0516 11.6395 51.0516 11.6391C51.0516 11.6386 51.0516 11.6382 51.0516 11.6378C51.0516 11.6373 51.0516 11.6369 51.0516 11.6365C51.0516 11.6361 51.0516 11.6356 51.0516 11.6352C51.0516 11.6348 51.0516 11.6343 51.0516 11.6339C51.0516 11.6335 51.0516 11.633 51.0516 11.6326C51.0516 11.6322 51.0516 11.6317 51.0516 11.6313C51.0516 11.6309 51.0516 11.6304 51.0516 11.63C51.0516 11.6296 51.0516 11.6291 51.0516 11.6287C51.0516 11.6283 51.0516 11.6278 51.0516 11.6274C51.0516 11.627 51.0516 11.6265 51.0516 11.6261C51.0516 11.6257 51.0516 11.6252 51.0516 11.6248C51.0516 11.6244 51.0516 11.6239 51.0516 11.6235C51.0516 11.6231 51.0516 11.6226 51.0516 11.6222C51.0516 11.6218 51.0516 11.6213 51.0516 11.6209C51.0516 11.6205 51.0516 11.62 51.0516 11.6196C51.0516 11.6192 51.0516 11.6187 51.0516 11.6183C51.0516 11.6179 51.0516 11.6175 51.0516 11.617C51.0516 11.6166 51.0516 11.6162 51.0516 11.6157C51.0516 11.6153 51.0516 11.6149 51.0516 11.6144C51.0516 11.614 51.0516 11.6136 51.0516 11.6131C51.0516 11.6127 51.0516 11.6123 51.0516 11.6118C51.0516 11.6114 51.0516 11.611 51.0516 11.6105C51.0516 11.6101 51.0516 11.6097 51.0516 11.6092C51.0516 11.6088 51.0516 11.6084 51.0516 11.6079C51.0516 11.6075 51.0516 11.6071 51.0516 11.6066C51.0516 11.6062 51.0516 11.6058 51.0516 11.6053C51.0516 11.6049 51.0516 11.6045 51.0516 11.604C51.0516 11.6036 51.0516 11.6032 51.0516 11.6027C51.0516 11.6023 51.0516 11.6018 51.0516 11.6014C51.0516 11.601 51.0516 11.6005 51.0516 11.6001C51.0516 11.5997 51.0516 11.5992 51.0516 11.5988C51.0516 11.5984 51.0516 11.5979 51.0516 11.5975C51.0516 11.5971 51.0516 11.5966 51.0516 11.5962C51.0516 11.5958 51.0516 11.5953 51.0516 11.5949C51.0516 11.5945 51.0516 11.594 51.0516 11.5936C51.0516 11.5932 51.0516 11.5927 51.0516 11.5923C51.0516 11.5919 51.0516 11.5914 51.0516 11.591C51.0516 11.5906 51.0516 11.5901 51.0516 11.5897C51.0516 11.5893 51.0516 11.5888 51.0516 11.5884C51.0516 11.588 51.0516 11.5875 51.0516 11.5871C51.0516 11.5867 51.0516 11.5862 51.0516 11.5858C51.0516 11.5854 51.0516 11.5849 51.0516 11.5845C51.0516 11.5841 51.0516 11.5836 51.0516 11.5832C51.0516 11.5827 51.0516 11.5823 51.0516 11.5819C51.0516 11.5814 51.0516 11.581 51.0516 11.5806C51.0516 11.5801 51.0516 11.5797 51.0516 11.5793C51.0516 11.5788 51.0516 11.5784 51.0516 11.578C51.0516 11.5775 51.0516 11.5771 51.0516 11.5767C51.0516 11.5762 51.0516 11.5758 51.0516 11.5754C51.0516 11.5749 51.0516 11.5745 51.0516 11.5741C51.0516 11.5736 51.0516 11.5732 51.0516 11.5727C51.0516 11.5723 51.0516 11.5719 51.0516 11.5714C51.0516 11.571 51.0516 11.5706 51.0516 11.5701C51.0516 11.5697 51.0516 11.5693 51.0516 11.5688C51.0516 11.5684 51.0516 11.568 51.0516 11.5675C51.0516 11.5671 51.0516 11.5667 51.0516 11.5662C51.0516 11.5658 51.0516 11.5653 51.0516 11.5649C51.0516 11.5645 51.0516 11.564 51.0516 11.5636C51.0516 11.5632 51.0516 11.5627 51.0516 11.5623C51.0516 11.5619 51.0516 11.5614 51.0516 11.561C51.0516 11.5606 51.0516 11.5601 51.0516 11.5597C51.0516 11.5592 51.0516 11.5588 51.0516 11.5584C51.0516 11.5579 51.0516 11.5575 51.0516 11.5571C51.0516 11.5566 51.0516 11.5562 51.0516 11.5558C51.0516 11.5553 51.0516 11.5549 51.0516 11.5545C51.0516 11.554 51.0516 11.5536 51.0516 11.5531C51.0516 11.5527 51.0516 11.5523 51.0516 11.5518C51.0516 11.5514 51.0516 11.551 51.0516 11.5505C51.0516 11.5501 51.0516 11.5497 51.0516 11.5492C51.0516 11.5488 51.0516 11.5484 51.0516 11.5479C51.0516 11.5475 51.0516 11.547 51.0516 11.5466C51.0516 11.5462 51.0516 11.5457 51.0516 11.5453C51.0516 11.5449 51.0516 11.5444 51.0516 11.544C51.0516 11.5436 51.0516 11.5431 51.0516 11.5427C51.0516 11.5422 51.0516 11.5418 51.0516 11.5414C51.0516 11.5409 51.0516 11.5405 51.0516 11.5401C51.0516 11.5396 51.0516 11.5392 51.0516 11.5388C51.0516 11.5383 51.0516 11.5379 51.0516 11.5374C51.0516 11.537 51.0516 11.5366 51.0516 11.5361C51.0516 11.5357 51.0516 11.5353 51.0516 11.5348C51.0516 11.5344 51.0516 11.5339 51.0516 11.5335C51.0516 11.5331 51.0516 11.5326 51.0516 11.5322C51.0516 11.5318 51.0516 11.5313 51.0516 11.5309C51.0516 11.5305 51.0516 11.53 51.0516 11.5296C51.0516 11.5291 51.0516 11.5287 51.0516 11.5283C51.0516 11.5278 51.0516 11.5274 51.0516 11.527C51.0516 11.5265 51.0516 11.5261 51.0516 11.5256C51.0516 11.5252 51.0516 11.5248 51.0516 11.5243C51.0516 11.5239 51.0516 11.5235 51.0516 11.523C51.0516 11.5226 51.0516 11.5221 51.0516 11.5217C51.0516 11.5213 51.0516 11.5208 51.0516 11.5204C51.0516 11.52 51.0516 11.5195 51.0516 11.5191C51.0516 11.5186 51.0516 11.5182 51.0516 11.5178C51.0516 11.5173 51.0516 11.5169 51.0516 11.5165C51.0516 11.516 51.0516 11.5156 51.0516 11.5151C51.0516 11.5147 51.0516 11.5143 51.0516 11.5138C51.0516 11.5134 51.0516 11.513 51.0516 11.5125C51.0516 11.5121 51.0516 11.5116 51.0516 11.5112C51.0516 11.5108 51.0516 11.5103 51.0516 11.5099C51.0516 11.5095 51.0516 11.509 51.0516 11.5086C51.0516 11.5081 51.0516 11.5077 51.0516 11.5073C51.0516 11.5068 51.0516 11.5064 51.0516 11.5059C51.0516 11.5055 51.0516 11.5051 51.0516 11.5046C51.0516 11.5042 51.0516 11.5038 51.0516 11.5033C51.0516 11.5029 51.0516 11.5024 51.0516 11.502C51.0516 11.5016 51.0516 11.5011 51.0516 11.5007C51.0516 11.5003 51.0516 11.4998 51.0516 11.4994C51.0516 11.4989 51.0516 11.4985 51.0516 11.4981C51.0516 11.4976 51.0516 11.4972 51.0516 11.4967C51.0516 11.4963 51.0516 11.4959 51.0516 11.4954C51.0516 11.495 51.0516 11.4946 51.0516 11.4941C51.0516 11.4937 51.0516 11.4932 51.0516 11.4928C51.0516 11.4924 51.0516 11.4919 51.0516 11.4915C51.0516 11.491 51.0516 11.4906 51.0516 11.4902C51.0516 11.4897 51.0516 11.4893 51.0516 11.4888C51.0516 11.4884 51.0516 11.488 51.0516 11.4875C51.0516 11.4871 51.0516 11.4867 51.0516 11.4862C51.0516 11.4858 51.0516 11.4853 51.0516 11.4849C51.0516 11.4845 51.0516 11.484 51.0516 11.4836C51.0516 11.4831 51.0516 11.4827 51.0516 11.4823C51.0516 11.4818 51.0516 11.4814 51.0516 11.4809C51.0516 11.4805 51.0516 11.4801 51.0516 11.4796C51.0516 11.4792 51.0516 11.4787 51.0516 11.4783C51.0516 11.4779 51.0516 11.4774 51.0516 11.477C51.0516 11.4766 51.0516 11.4761 51.0516 11.4757C51.0516 11.4752 51.0516 11.4748 51.0516 11.4744C51.0516 11.4739 51.0516 11.4735 51.0516 11.473C51.0516 11.4726 51.0516 11.4722 51.0516 11.4717C51.0516 11.4713 51.0516 11.4708 51.0516 11.4704C51.0516 11.47 51.0516 11.4695 51.0516 11.4691C51.0516 11.4686 51.0516 11.4682 51.0516 11.4678C51.0516 11.4673 51.0516 11.4669 51.0516 11.4664C51.0516 11.466 51.0516 11.4656 51.0516 11.4651C51.0516 11.4647 51.0516 11.4642 51.0516 11.4638C51.0516 11.4634 51.0516 11.4629 51.0516 11.4625C51.0516 11.462 51.0516 11.4616 51.0516 11.4612C51.0516 11.4607 51.0516 11.4603 51.0516 11.4598C51.0516 11.4594 51.0516 11.459 51.0516 11.4585C51.0516 11.4581 51.0516 11.4576 51.0516 11.4572C51.0516 11.4568 51.0516 11.4563 51.0516 11.4559C51.0516 11.4554 51.0516 11.455 51.0516 11.4546C51.0516 11.4541 51.0516 11.4537 51.0516 11.4532C51.0516 11.4528 51.0516 11.4524 51.0516 11.4519C51.0516 11.4515 51.0516 11.451 51.0516 11.4506C51.0516 11.4502 51.0516 11.4497 51.0516 11.4493C51.0516 11.4488 51.0516 11.4484 51.0516 11.4479C51.0516 11.4475 51.0516 11.4471 51.0516 11.4466C51.0516 11.4462 51.0516 11.4457 51.0516 11.4453C51.0516 11.4449 51.0516 11.4444 51.0516 11.444C51.0516 11.4435 51.0516 11.4431 51.0516 11.4427C51.0516 11.4422 51.0516 11.4418 51.0516 11.4413C51.0516 11.4409 51.0516 11.4405 51.0516 11.44C51.0516 11.4396 51.0516 11.4391 51.0516 11.4387C51.0516 11.4382 51.0516 11.4378 51.0516 11.4374C51.0516 11.4369 51.0516 11.4365 51.0516 11.436C51.0516 11.4356 51.0516 11.4352 51.0516 11.4347C51.0516 11.4343 51.0516 11.4338 51.0516 11.4334C51.0516 11.433 51.0516 11.4325 51.0516 11.4321C51.0516 11.4316 51.0516 11.4312 51.0516 11.4307C51.0516 11.4303 51.0516 11.4299 51.0516 11.4294C51.0516 11.429 51.0516 11.4285 51.0516 11.4281C51.0516 11.4277 51.0516 11.4272 51.0516 11.4268C51.0516 11.4263 51.0516 11.4259 51.0516 11.4254C51.0516 11.425 51.0516 11.4246 51.0516 11.4241C51.0516 11.4237 51.0516 11.4232 51.0516 11.4228C51.0516 11.4224 51.0516 11.4219 51.0516 11.4215C51.0516 11.421 51.0516 11.4206 51.0516 11.4201C51.0516 11.4197 51.0516 11.4193 51.0516 11.4188C51.0516 11.4184 51.0516 11.4179 51.0516 11.4175C51.0516 11.417 51.0516 11.4166 51.0516 11.4162C51.0516 11.4157 51.0516 11.4153 51.0516 11.4148C51.0516 11.4144 51.0516 11.414 51.0516 11.4135C51.0516 11.4131 51.0516 11.4126 51.0516 11.4122C51.0516 11.4117 51.0516 11.4113 51.0516 11.4109C51.0516 11.4104 51.0516 11.41 51.0516 11.4095C51.0516 11.4091 51.0516 11.4086 51.0516 11.4082C51.0516 11.4078 51.0516 11.4073 51.0516 11.4069C51.0516 11.4064 51.0516 11.406 51.0516 11.4055C51.0516 11.4051 51.0516 11.4047 51.0516 11.4042C51.0516 11.4038 51.0516 11.4033 51.0516 11.4029C51.0516 11.4024 51.0516 11.402 51.0516 11.4016C51.0516 11.4011 51.0516 11.4007 51.0516 11.4002C51.0516 11.3998 51.0516 11.3993 51.0516 11.3989C51.0516 11.3985 51.0516 11.398 51.0516 11.3976C51.0516 11.3971 51.0516 11.3967 51.0516 11.3962C51.0516 11.3958 51.0516 11.3954 51.0516 11.3949C51.0516 11.3945 51.0516 11.394 51.0516 11.3936C51.0516 11.3931 51.0516 11.3927 51.0516 11.3923C51.0516 11.3918 51.0516 11.3914 51.0516 11.3909C51.0516 11.3905 51.0516 11.39 51.0516 11.3896C51.0516 11.3892 51.0516 11.3887 51.0516 11.3883C51.0516 11.3878 51.0516 11.3874 51.0516 11.3869C51.0516 11.3865 51.0516 11.3861 51.0516 11.3856C51.0516 11.3852 51.0516 11.3847 51.0516 11.3843C51.0516 11.3838 51.0516 11.3834 51.0516 11.3829C51.0516 11.3825 51.0516 11.3821 51.0516 11.3816C51.0516 11.3812 51.0516 11.3807 51.0516 11.3803C51.0516 11.3798 51.0516 11.3794 51.0516 11.379C51.0516 11.3785 51.0516 11.3781 51.0516 11.3776C51.0516 11.3772 51.0516 11.3767 51.0516 11.3763C51.0516 11.3758 51.0516 11.3754 51.0516 11.375C51.0516 11.3745 51.0516 11.3741 51.0516 11.3736C51.0516 11.3732 51.0516 11.3727 51.0516 11.3723C51.0516 11.3719 51.0516 11.3714 51.0516 11.371C51.0516 11.3705 51.0516 11.3701 51.0516 11.3696C51.0516 11.3692 51.0516 11.3687 51.0516 11.3683C51.0516 11.3679 51.0516 11.3674 51.0516 11.367C51.0516 11.3665 51.0516 11.3661 51.0516 11.3656C51.0516 11.3652 51.0516 11.3647 51.0516 11.3643C51.0516 11.3639 51.0516 11.3634 51.0516 11.363C51.0516 11.3625 51.0516 11.3621 51.0516 11.3616C51.0516 11.3612 51.0516 11.3607 51.0516 11.3603C51.0516 11.3599 51.0516 11.3594 51.0516 11.359C51.0516 11.3585 51.0516 11.3581 51.0516 11.3576C51.0516 11.3572 51.0516 11.3567 51.0516 11.3563C51.0516 11.3558 51.0516 11.3554 51.0516 11.355C51.0516 11.3545 51.0516 11.3541 51.0516 11.3536C51.0516 11.3532 51.0516 11.3527 51.0516 11.3523C51.0516 11.3518 51.0516 11.3514 51.0516 11.351C51.0516 11.3505 51.0516 11.3501 51.0516 11.3496C51.0516 11.3492 51.0516 11.3487 51.0516 11.3483C51.0516 11.3478 51.0516 11.3474 51.0516 11.3469C51.0516 11.3465 51.0516 11.3461 51.0516 11.3456C51.0516 11.3452 51.0516 11.3447 51.0516 11.3443C51.0516 11.3438 51.0516 11.3434 51.0516 11.3429C51.0516 11.3425 51.0516 11.342 51.0516 11.3416C51.0516 11.3412 51.0516 11.3407 51.0516 11.3403C51.0516 11.3398 51.0516 11.3394 51.0516 11.3389C51.0516 11.3385 51.0516 11.338 51.0516 11.3376C51.0516 11.3371 51.0516 11.3367 51.0516 11.3363C51.0516 11.3358 51.0516 11.3354 51.0516 11.3349C51.0516 11.3345 51.0516 11.334 51.0516 11.3336C51.0516 11.3331 51.0516 11.3327 51.0516 11.3322C51.0516 11.3318 51.0516 11.3314 51.0516 11.3309C51.0516 11.3305 51.0516 11.33 51.0516 11.3296C51.0516 11.3291 51.0516 11.3287 51.0516 11.3282C51.0516 11.3278 51.0516 11.3273 51.0516 11.3269C51.0516 11.3264 51.0516 11.326 51.0516 11.3256C51.0516 11.3251 51.0516 11.3247 51.0516 11.3242C51.0516 11.3238 51.0516 11.3233 51.0516 11.3229C51.0516 11.3224 51.0516 11.322 51.0516 11.3215C51.0516 11.3211 51.0516 11.3206 51.0516 11.3202C51.0516 11.3198 51.0516 11.3193 51.0516 11.3189C51.0516 11.3184 51.0516 11.318 51.0516 11.3175C51.0516 11.3171 51.0516 11.3166 51.0516 11.3162C51.0516 11.3157 51.0516 11.3153 51.0516 11.3148C51.0516 11.3144 51.0516 11.3139 51.0516 11.3135C51.0516 11.3131 51.0516 11.3126 51.0516 11.3122C51.0516 11.3117 51.0516 11.3113 51.0516 11.3108C51.0516 11.3104 51.0516 11.3099 51.0516 11.3095C51.0516 11.309 51.0516 11.3086 51.0516 11.3081C51.0516 11.3077 51.0516 11.3072 51.0516 11.3068C51.0516 11.3063 51.0516 11.3059 51.0516 11.3055C51.0516 11.305 51.0516 11.3046 51.0516 11.3041C51.0516 11.3037 51.0516 11.3032 51.0516 11.3028C51.0516 11.3023 51.0516 11.3019 51.0516 11.3014C51.0516 11.301 51.0516 11.3005 51.0516 11.3001C51.0516 11.2996 51.0516 11.2992 51.0516 11.2987C51.0516 11.2983 51.0516 11.2979 51.0516 11.2974C51.0516 11.297 51.0516 11.2965 51.0516 11.2961C51.0516 11.2956 51.0516 11.2952 51.0516 11.2947C51.0516 11.2943 51.0516 11.2938 51.0516 11.2934C51.0516 11.2929 51.0516 11.2925 51.0516 11.292C51.0516 11.2916 51.0516 11.2911 51.0516 11.2907C51.0516 11.2902 51.0516 11.2898 51.0516 11.2893C51.0516 11.2889 51.0516 11.2885 51.0516 11.288C51.0516 11.2876 51.0516 11.2871 51.0516 11.2867C51.0516 11.2862 51.0516 11.2858 51.0516 11.2853C51.0516 11.2849 51.0516 11.2844 51.0516 11.284C51.0516 11.2835 51.0516 11.2831 51.0516 11.2826C51.0516 11.2822 51.0516 11.2817 51.0516 11.2813C51.0516 11.2808 51.0516 11.2804 51.0516 11.2799C51.0516 11.2795 51.0516 11.279 51.0516 11.2786C51.0516 11.2781 51.0516 11.2777 51.0516 11.2772C51.0516 11.2768 51.0516 11.2764 51.0516 11.2759C51.0516 11.2755 51.0516 11.275 51.0516 11.2746C51.0516 11.2741 51.0516 11.2737 51.0516 11.2732C51.0516 11.2728 51.0516 11.2723 51.0516 11.2719C51.0516 11.2714 51.0516 11.271 51.0516 11.2705C51.0516 11.2701 51.0516 11.2696 51.0516 11.2692C51.0516 11.2687 51.0516 11.2683 51.0516 11.2678C51.0516 11.2674 51.0516 11.2669 51.0516 11.2665C51.0516 11.266 51.0516 11.2656 51.0516 11.2651C51.0516 11.2647 51.0516 11.2642 51.0516 11.2638C51.0516 11.2633 51.0516 11.2629 51.0516 11.2624C51.0516 11.262 51.0516 11.2615 51.0516 11.2611C51.0516 11.2606 51.0516 11.2602 51.0516 11.2597C51.0516 11.2593 51.0516 11.2588 51.0516 11.2584C51.0516 11.258 51.0516 11.2575 51.0516 11.2571C51.0516 11.2566 51.0516 11.2562 51.0516 11.2557C51.0516 11.2553 51.0516 11.2548 51.0516 11.2544C51.0516 11.2539 51.0516 11.2535 51.0516 11.253C51.0516 11.2526 51.0516 11.2521 51.0516 11.2517C51.0516 11.2512 51.0516 11.2508 51.0516 11.2503C51.0516 11.2499 51.0516 11.2494 51.0516 11.249C51.0516 11.2485 51.0516 11.2481 51.0516 11.2476C51.0516 11.2472 51.0516 11.2467 51.0516 11.2463C51.0516 11.2458 51.0516 11.2454 51.0516 11.2449C51.0516 11.2445 51.0516 11.244 51.0516 11.2436C51.0516 11.2431 51.0516 11.2427 51.0516 11.2422C51.0516 11.2418 51.0516 11.2413 51.0516 11.2409C51.0516 11.2404 51.0516 11.24 51.0516 11.2395C51.0516 11.2391 51.0516 11.2386 51.0516 11.2382C51.0516 11.2377 51.0516 11.2373 51.0516 11.2368C51.0516 11.2364 51.0516 11.2359 51.0516 11.2355C51.0516 11.235 51.0516 11.2346 51.0516 11.2341C51.0516 11.2337 51.0516 11.2332 51.0516 11.2328C51.0516 11.2323 51.0516 11.2319 51.0516 11.2314C51.0516 11.231 51.0516 11.2305 51.0516 11.2301C51.0516 11.2296 51.0516 11.2292 51.0516 11.2287C51.0516 11.2283 51.0516 11.2278 51.0516 11.2274C51.0516 11.2269 51.0516 11.2265 51.0516 11.226C51.0516 11.2256 51.0516 11.2251 51.0516 11.2247C51.0516 11.2242 51.0516 11.2238 51.0516 11.2233C51.0516 11.2229 51.0516 11.2224 51.0516 11.222C51.0516 11.2215 51.0516 11.221 51.0516 11.2206C51.0516 11.2201 51.0516 11.2197 51.0516 11.2192C51.0516 11.2188 51.0516 11.2183 51.0516 11.2179C51.0516 11.2174 51.0516 11.217 51.0516 11.2165C51.0516 11.2161 51.0516 11.2156 51.0516 11.2152C51.0516 11.2147 51.0516 11.2143 51.0516 11.2138C51.0516 11.2134 51.0516 11.2129 51.0516 11.2125C51.0516 11.212 51.0516 11.2116 51.0516 11.2111C51.0516 11.2107 51.0516 11.2102 51.0516 11.2098C51.0516 11.2093 51.0516 11.2089 51.0516 11.2084C51.0516 11.208 51.0516 11.2075 51.0516 11.2071C51.0516 11.2066 51.0516 11.2062 51.0516 11.2057C51.0516 11.2053 51.0516 11.2048 51.0516 11.2044C51.0516 11.2039 51.0516 11.2035 51.0516 11.203C51.0516 11.2025 51.0516 11.2021 51.0516 11.2016C51.0516 11.2012 51.0516 11.2007 51.0516 11.2003C51.0516 11.1998 51.0516 11.1994 51.0516 11.1989C51.0516 11.1985 51.0516 11.198 51.0516 11.1976C51.0516 11.1971 51.0516 11.1967 51.0516 11.1962C51.0516 11.1958 51.0516 11.1953 51.0516 11.1949C51.0516 11.1944 51.0516 11.194 51.0516 11.1935C51.0516 11.1931 51.0516 11.1926 51.0516 11.1922C51.0516 11.1917 51.0516 11.1913 51.0516 11.1908C51.0516 11.1903 51.0516 11.1899 51.0516 11.1894C51.0516 11.189 51.0516 11.1885 51.0516 11.1881C51.0516 11.1876 51.0516 11.1872 51.0516 11.1867C51.0516 11.1863 51.0516 11.1858 51.0516 11.1854C51.0516 11.1849 51.0516 11.1845 51.0516 11.184C51.0516 11.1836 51.0516 11.1831 51.0516 11.1827C51.0516 11.1822 51.0516 11.1818 51.0516 11.1813C51.0516 11.1808 51.0516 11.1804 51.0516 11.1799C51.0516 11.1795 51.0516 11.179 51.0516 11.1786C51.0516 11.1781 51.0516 11.1777 51.0516 11.1772C51.0516 11.1768 51.0516 11.1763 51.0516 11.1759C51.0516 11.1754 51.0516 11.175 51.0516 11.1745C51.0516 11.1741 51.0516 11.1736 51.0516 11.1732C51.0516 11.1727 51.0516 11.1722 51.0516 11.1718C51.0516 11.1713 51.0516 11.1709 51.0516 11.1704C51.0516 11.17 51.0516 11.1695 51.0516 11.1691C51.0516 11.1686 51.0516 11.1682 51.0516 11.1677C51.0516 11.1673 51.0516 11.1668 51.0516 11.1664C51.0516 11.1659 51.0516 11.1654 51.0516 11.165C51.0516 11.1645 51.0516 11.1641 51.0516 11.1636C51.0516 11.1632 51.0516 11.1627 51.0516 11.1623C51.0516 11.1618 51.0516 11.1614 51.0516 11.1609C51.0516 11.1605 51.0516 11.16 51.0516 11.1596C51.0516 11.1591 51.0516 11.1586 51.0516 11.1582C51.0516 11.1577 51.0516 11.1573 51.0516 11.1568C51.0516 11.1564 51.0516 11.1559 51.0516 11.1555C51.0516 11.155 51.0516 11.1546 51.0516 11.1541C51.0516 11.1537 51.0516 11.1532 51.0516 11.1527C51.0516 11.1523 51.0516 11.1518 51.0516 11.1514C51.0516 11.1509 51.0516 11.1505 51.0516 11.15C51.0516 11.1496 51.0516 11.1491 51.0516 11.1487C51.0516 11.1482 51.0516 11.1478 51.0516 11.1473C51.0516 11.1468 51.0516 11.1464 51.0516 11.1459C51.0516 11.1455 51.0516 11.145 51.0516 11.1446C51.0516 11.1441 51.0516 11.1437 51.0516 11.1432C51.0516 11.1428 51.0516 11.1423 51.0516 11.1419C51.0516 11.1414 51.0516 11.1409 51.0516 11.1405C51.0516 11.14 51.0516 11.1396 51.0516 11.1391C51.0516 11.1387 51.0516 11.1382 51.0516 11.1378C51.0516 11.1373 51.0516 11.1369 51.0516 11.1364C51.0516 11.1359 51.0516 11.1355 51.0516 11.135C51.0516 11.1346 51.0516 11.1341 51.0516 11.1337C51.0516 11.1332 51.0516 11.1328 51.0516 11.1323C51.0516 11.1319 51.0516 11.1314 51.0516 11.1309C51.0516 11.1305 51.0516 11.13 51.0516 11.1296C51.0516 11.1291 51.0516 11.1287 51.0516 11.1282C51.0516 11.1278 51.0516 11.1273 51.0516 11.1268C51.0516 11.1264 51.0516 11.1259 51.0516 11.1255C51.0516 11.125 51.0516 11.1246 51.0516 11.1241C51.0516 11.1237 51.0516 11.1232 51.0516 11.1228C51.0516 11.1223 51.0516 11.1218 51.0516 11.1214C51.0516 11.1209 51.0516 11.1205 51.0516 11.12C51.0516 11.1196 51.0516 11.1191 51.0516 11.1187C51.0516 11.1182 51.0516 11.1177 51.0516 11.1173C51.0516 11.1168 51.0516 11.1164 51.0516 11.1159C51.0516 11.1155 51.0516 11.115 51.0516 11.1146C51.0516 11.1141 51.0516 11.1136 51.0516 11.1132C51.0516 11.1127 51.0516 11.1123 51.0516 11.1118C51.0516 11.1114 51.0516 11.1109 51.0516 11.1105C51.0516 11.11 51.0516 11.1095 51.0516 11.1091C51.0516 11.1086 51.0516 11.1082 51.0516 11.1077C51.0516 11.1073 51.0516 11.1068 51.0516 11.1064C51.0516 11.1059 51.0516 11.1054 51.0516 11.105C51.0516 11.1045 51.0516 11.1041 51.0516 11.1036C51.0516 11.1032 51.0516 11.1027 51.0516 11.1023C51.0516 11.1018 51.0516 11.1013 51.0516 11.1009C51.0516 11.1004 51.0516 11.1 51.0516 11.0995C51.0516 11.0991 51.0516 11.0986 51.0516 11.0981C51.0516 11.0977 51.0516 11.0972 51.0516 11.0968C51.0516 11.0963 51.0516 11.0959 51.0516 11.0954C51.0516 11.095 51.0516 11.0945 51.0516 11.094C51.0516 11.0936 51.0516 11.0931 51.0516 11.0927C51.0516 11.0922 51.0516 11.0918 51.0516 11.0913C51.0516 11.0908 51.0516 11.0904 51.0516 11.0899C51.0516 11.0895 51.0516 11.089 51.0516 11.0886C51.0516 11.0881 51.0516 11.0876 51.0516 11.0872C51.0516 11.0867 51.0516 11.0863 51.0516 11.0858C51.0516 11.0854 51.0516 11.0849 51.0516 11.0844C51.0516 11.084 51.0516 11.0835 51.0516 11.0831C51.0516 11.0826 51.0516 11.0822 51.0516 11.0817C51.0516 11.0813 51.0516 11.0808 51.0516 11.0803C51.0516 11.0799 51.0516 11.0794 51.0516 11.079C51.0516 11.0785 51.0516 11.0781 51.0516 11.0776C51.0516 11.0771 51.0516 11.0767 51.0516 11.0762C51.0516 11.0758 51.0516 11.0753 51.0516 11.0749C51.0516 11.0744 51.0516 11.0739 51.0516 11.0735C51.0516 11.073 51.0516 11.0726 51.0516 11.0721C51.0516 11.0717 51.0516 11.0712 51.0516 11.0707C51.0516 11.0703 51.0516 11.0698 51.0516 11.0694C51.0516 11.0689 51.0516 11.0684 51.0516 11.068C51.0516 11.0675 51.0516 11.0671 51.0516 11.0666C51.0516 11.0662 51.0516 11.0657 51.0516 11.0652C51.0516 11.0648 51.0516 11.0643 51.0516 11.0639C51.0516 11.0634 51.0516 11.063 51.0516 11.0625H49.0516ZM49.0516 11.7422C49.0516 11.9848 49.0602 12.2273 49.0775 12.4697L51.0725 12.3272C51.0585 12.1321 51.0516 11.9371 51.0516 11.7422H49.0516ZM49.075 12.3984C49.075 13.8705 48.751 15.1619 48.1222 16.2965L49.8715 17.266C50.6802 15.8069 51.075 14.1764 51.075 12.3984H49.075ZM48.1207 16.2993C47.1669 18.0335 45.1286 20.4383 41.9054 23.5369L43.2915 24.9787C46.537 21.8586 48.7644 19.279 49.8731 17.2632L48.1207 16.2993ZM41.9097 23.5328C40.0384 25.3105 38.7657 26.5732 38.1235 27.2976L39.6202 28.6242C40.1968 27.9737 41.4085 26.7676 43.2872 24.9828L41.9097 23.5328ZM38.1276 27.293C37.5312 27.9577 37.0306 28.6635 36.6307 29.4112L38.3943 30.3545C38.7131 29.7583 39.1188 29.183 39.6161 28.6288L38.1276 27.293ZM37.5125 30.8828H50.0516V28.8828H37.5125V30.8828ZM49.0516 29.8828V36H51.0516V29.8828H49.0516Z" fill="#7A8086"/>
</svg>
