<svg width="47" height="38" viewBox="0 0 47 38" fill="none" xmlns="http://www.w3.org/2000/svg">
<path d="M4.33906 32.7188L5.16179 32.1503L5.16157 32.15L4.33906 32.7188ZM3.96406 5.57812L3.10384 5.0682L3.10305 5.06955L3.96406 5.57812ZM19.9484 5.57812L19.0902 6.09132L19.0921 6.09457L19.9484 5.57812ZM14.9094 8.74219L13.9829 9.11856L13.983 9.11877L14.9094 8.74219ZM9.14375 8.76562L8.22264 8.37629L8.22089 8.38049L9.14375 8.76562ZM9.16719 29.0156L10.081 28.6095L10.0791 28.6053L9.16719 29.0156ZM14.8156 28.9688L15.729 29.3758L15.7301 29.3735L14.8156 28.9688ZM21.6906 19.0547C21.6906 24.8294 20.8047 28.9928 19.1649 31.6826C17.5741 34.2921 15.2343 35.5859 12.0031 35.5859V37.5859C15.8969 37.5859 18.9009 35.9579 20.8726 32.7237C22.7953 29.5697 23.6906 24.9675 23.6906 19.0547H21.6906ZM12.0031 35.5859C8.97935 35.5859 6.74302 34.4389 5.16179 32.1503L3.51633 33.2872C5.49761 36.1548 8.37065 37.5859 12.0031 37.5859V35.5859ZM5.16157 32.15C3.30368 29.4632 2.29219 25.1332 2.29219 18.9844H0.292187C0.292187 25.273 1.31194 30.0993 3.51655 33.2875L5.16157 32.15ZM2.29219 18.9844C2.29219 13.1323 3.17771 8.87567 4.82508 6.0867L3.10305 5.06955C1.18792 8.31183 0.292187 12.9927 0.292187 18.9844H2.29219ZM4.82428 6.08805C6.43864 3.36469 8.789 2.03125 12.0031 2.03125V0.03125C8.09225 0.03125 5.08323 1.72906 3.10384 5.0682L4.82428 6.08805ZM12.0031 2.03125C15.1298 2.03125 17.4552 3.35695 19.0902 6.09132L20.8067 5.06493C18.8167 1.7368 15.8452 0.03125 12.0031 0.03125V2.03125ZM19.0921 6.09457C20.7822 8.89696 21.6906 13.1735 21.6906 19.0547H23.6906C23.6906 13.0296 22.7709 8.32179 20.8048 5.06168L19.0921 6.09457ZM17.0812 19.0547C17.0812 14.1031 16.6981 10.487 15.8358 8.36561L13.983 9.11877C14.6831 10.8411 15.0812 14.1001 15.0812 19.0547H17.0812ZM15.8358 8.36581C15.4855 7.50337 14.9997 6.77627 14.338 6.26396C13.6633 5.74165 12.869 5.49219 12.0031 5.49219V7.49219C12.4654 7.49219 12.8195 7.61773 13.1136 7.84541C13.4206 8.08311 13.7239 8.481 13.9829 9.11856L15.8358 8.36581ZM12.0031 5.49219C11.1539 5.49219 10.3776 5.75236 9.71672 6.2778C9.07131 6.79096 8.58617 7.51626 8.22265 8.3763L10.0648 9.15495C10.342 8.49937 10.6537 8.08795 10.9614 7.84329C11.2537 7.61093 11.5867 7.49219 12.0031 7.49219V5.49219ZM8.22089 8.38049C7.30914 10.5653 6.90156 14.1732 6.90156 19.0547H8.90156C8.90156 14.1862 9.32211 10.9347 10.0666 9.15076L8.22089 8.38049ZM6.90156 19.0547C6.90156 23.823 7.31535 27.3373 8.25527 29.426L10.0791 28.6053C9.33153 26.944 8.90156 23.8176 8.90156 19.0547H6.90156ZM8.25338 29.4218C8.61494 30.2353 9.10153 30.9191 9.74811 31.4C10.4064 31.8897 11.1722 32.125 12.0031 32.125V30.125C11.5684 30.125 11.2288 30.0088 10.9417 29.7953C10.643 29.5731 10.3444 29.2022 10.081 28.6095L8.25338 29.4218ZM12.0031 32.125C12.8297 32.125 13.5889 31.8791 14.2405 31.3795C14.8782 30.8906 15.3626 30.1981 15.729 29.3758L13.9022 28.5617C13.6281 29.1769 13.3234 29.5625 13.0236 29.7923C12.7377 30.0115 12.4109 30.125 12.0031 30.125V32.125ZM15.7301 29.3735C16.6664 27.258 17.0812 23.7651 17.0812 19.0547H15.0812C15.0812 23.7505 14.6523 26.867 13.9012 28.564L15.7301 29.3735ZM45.1062 36V37H46.1062V36H45.1062ZM38.7781 36H37.7781V37H38.7781V36ZM38.7781 11.1797H39.7781V8.79169L38.0765 10.4671L38.7781 11.1797ZM35.6375 13.4531L35.206 12.551L35.1981 12.5548L35.1903 12.5587L35.6375 13.4531ZM32.5437 14.625L31.6264 15.023L31.998 15.8795L32.8779 15.5675L32.5437 14.625ZM30.6219 10.1953L30.2986 9.24902L29.2732 9.59934L29.7045 10.5933L30.6219 10.1953ZM35.9656 7.10156L35.3237 6.3348L35.3213 6.33683L35.9656 7.10156ZM39.9734 1.64062V0.640625H39.2545L39.0255 1.32212L39.9734 1.64062ZM45.1062 1.64062H46.1062V0.640625H45.1062V1.64062ZM45.1062 35H38.7781V37H45.1062V35ZM39.7781 36V11.1797H37.7781V36H39.7781ZM38.0765 10.4671C37.125 11.404 36.1671 12.0914 35.206 12.551L36.069 14.3553C37.2641 13.7836 38.4 12.9554 39.4797 11.8923L38.0765 10.4671ZM35.1903 12.5587C34.9155 12.6961 33.9566 13.0631 32.2096 13.6825L32.8779 15.5675C34.5684 14.9682 35.672 14.5539 36.0847 14.3476L35.1903 12.5587ZM33.4611 14.227L31.5393 9.7973L29.7045 10.5933L31.6264 15.023L33.4611 14.227ZM30.9452 11.1416C32.9501 10.4566 34.8384 9.35901 36.61 7.86629L35.3213 6.33683C33.7178 7.68787 32.0436 8.6528 30.2986 9.24902L30.9452 11.1416ZM36.6076 7.86832C38.7261 6.09468 40.1922 4.12915 40.9214 1.95913L39.0255 1.32212C38.4421 3.05835 37.2364 4.73345 35.3237 6.33481L36.6076 7.86832ZM39.9734 2.64062H45.1062V0.640625H39.9734V2.64062ZM44.1062 1.64062V36H46.1062V1.64062H44.1062Z" fill="#7A8086"/>
</svg>
