<svg width="52" height="38" viewBox="0 0 52 38" fill="none" xmlns="http://www.w3.org/2000/svg">
<path d="M4.99238 32.7188L5.81511 32.1503L5.81489 32.15L4.99238 32.7188ZM4.61738 5.57812L3.75716 5.0682L3.75637 5.06955L4.61738 5.57812ZM20.6018 5.57812L19.7435 6.09132L19.7454 6.09457L20.6018 5.57812ZM15.5627 8.74219L14.6362 9.11856L14.6363 9.11877L15.5627 8.74219ZM9.79707 8.76562L8.87596 8.37629L8.87421 8.38049L9.79707 8.76562ZM9.82051 29.0156L10.7343 28.6095L10.7324 28.6053L9.82051 29.0156ZM15.4689 28.9688L16.3823 29.3758L16.3834 29.3735L15.4689 28.9688ZM22.3439 19.0547C22.3439 24.8294 21.458 28.9928 19.8182 31.6826C18.2274 34.2921 15.8876 35.5859 12.6564 35.5859V37.5859C16.5503 37.5859 19.5542 35.9579 21.5259 32.7237C23.4486 29.5697 24.3439 24.9675 24.3439 19.0547H22.3439ZM12.6564 35.5859C9.63267 35.5859 7.39634 34.4389 5.81511 32.1503L4.16965 33.2872C6.15093 36.1548 9.02397 37.5859 12.6564 37.5859V35.5859ZM5.81489 32.15C3.957 29.4632 2.94551 25.1332 2.94551 18.9844H0.945507C0.945507 25.273 1.96526 30.0993 4.16988 33.2875L5.81489 32.15ZM2.94551 18.9844C2.94551 13.1323 3.83103 8.87567 5.4784 6.0867L3.75637 5.06955C1.84124 8.31183 0.945507 12.9927 0.945507 18.9844H2.94551ZM5.4776 6.08805C7.09196 3.36469 9.44232 2.03125 12.6564 2.03125V0.03125C8.74557 0.03125 5.73655 1.72906 3.75716 5.0682L5.4776 6.08805ZM12.6564 2.03125C15.7832 2.03125 18.1085 3.35695 19.7435 6.09132L21.46 5.06493C19.47 1.7368 16.4985 0.03125 12.6564 0.03125V2.03125ZM19.7454 6.09457C21.4355 8.89696 22.3439 13.1735 22.3439 19.0547H24.3439C24.3439 13.0296 23.4242 8.32179 21.4581 5.06168L19.7454 6.09457ZM17.7346 19.0547C17.7346 14.1031 17.3514 10.487 16.4891 8.36561L14.6363 9.11877C15.3365 10.8411 15.7346 14.1001 15.7346 19.0547H17.7346ZM16.4892 8.36581C16.1388 7.50337 15.653 6.77627 14.9913 6.26396C14.3166 5.74165 13.5223 5.49219 12.6564 5.49219V7.49219C13.1187 7.49219 13.4728 7.61773 13.7669 7.84541C14.074 8.08311 14.3772 8.481 14.6362 9.11856L16.4892 8.36581ZM12.6564 5.49219C11.8072 5.49219 11.0309 5.75236 10.37 6.2778C9.72463 6.79096 9.23949 7.51626 8.87597 8.3763L10.7182 9.15495C10.9953 8.49937 11.307 8.08795 11.6147 7.84329C11.907 7.61093 12.2401 7.49219 12.6564 7.49219V5.49219ZM8.87421 8.38049C7.96246 10.5653 7.55488 14.1732 7.55488 19.0547H9.55488C9.55488 14.1862 9.97543 10.9347 10.7199 9.15076L8.87421 8.38049ZM7.55488 19.0547C7.55488 23.823 7.96867 27.3373 8.90859 29.426L10.7324 28.6053C9.98485 26.944 9.55488 23.8176 9.55488 19.0547H7.55488ZM8.9067 29.4218C9.26826 30.2353 9.75485 30.9191 10.4014 31.4C11.0597 31.8897 11.8256 32.125 12.6564 32.125V30.125C12.2217 30.125 11.8821 30.0088 11.5951 29.7953C11.2963 29.5731 10.9978 29.2022 10.7343 28.6095L8.9067 29.4218ZM12.6564 32.125C13.483 32.125 14.2422 31.8791 14.8938 31.3795C15.5315 30.8906 16.0159 30.1981 16.3823 29.3758L14.5555 28.5617C14.2814 29.1769 13.9767 29.5625 13.6769 29.7923C13.391 30.0115 13.0642 30.125 12.6564 30.125V32.125ZM16.3834 29.3735C17.3198 27.258 17.7346 23.7651 17.7346 19.0547H15.7346C15.7346 23.7505 15.3056 26.867 14.5545 28.564L16.3834 29.3735ZM28.908 26.8828L28.7826 25.8907L27.7996 26.015L27.9148 26.999L28.908 26.8828ZM35.0252 26.1094L36.0182 25.9914L35.8993 24.9909L34.8998 25.1173L35.0252 26.1094ZM36.5486 29.8125L35.8163 30.4934L35.8225 30.5001L35.8288 30.5066L36.5486 29.8125ZM43.0877 21.5156L42.3175 22.1534L42.3229 22.16L42.3284 22.1664L43.0877 21.5156ZM37.0408 20.5078L36.0487 20.3822L35.8572 21.8947L37.3208 21.4678L37.0408 20.5078ZM37.7205 15.1406V14.1406H36.8392L36.7284 15.015L37.7205 15.1406ZM42.0096 7.96875L41.2704 8.64224L41.2782 8.65082L41.2862 8.65923L42.0096 7.96875ZM36.5721 8.08594L35.8507 7.39341L35.8504 7.39371L36.5721 8.08594ZM35.2127 11.5078L35.0387 12.4926L36.0864 12.6777L36.2063 11.6205L35.2127 11.5078ZM29.3768 10.4766L28.3954 10.2843L28.1996 11.284L29.2027 11.4613L29.3768 10.4766ZM32.7986 3.72656L33.4552 4.48088L33.4591 4.47741L32.7986 3.72656ZM46.5096 4.10156L45.8305 4.83567L45.8336 4.83846L46.5096 4.10156ZM44.5877 17.5312L44.0916 16.663L41.8428 17.948L44.3716 18.5076L44.5877 17.5312ZM49.8221 25.6875C49.8221 28.4413 48.8702 30.7578 46.9483 32.6939L48.3677 34.1029C50.6645 31.7891 51.8221 28.9649 51.8221 25.6875H49.8221ZM46.9483 32.6939C45.0377 34.6187 42.6654 35.5859 39.7596 35.5859V37.5859C43.1663 37.5859 46.0596 36.4282 48.3677 34.1029L46.9483 32.6939ZM39.7596 35.5859C37.0219 35.5859 34.8079 34.7746 33.0444 33.193L31.7091 34.682C33.8831 36.6317 36.591 37.5859 39.7596 37.5859V35.5859ZM33.0444 33.193C31.2789 31.6097 30.2202 29.4927 29.9012 26.7666L27.9148 26.999C28.2833 30.1479 29.5371 32.7341 31.7091 34.682L33.0444 33.193ZM29.0334 27.8749L35.1506 27.1015L34.8998 25.1173L28.7826 25.8907L29.0334 27.8749ZM34.0322 26.2274C34.237 27.9516 34.8051 29.406 35.8163 30.4934L37.281 29.1316C36.6359 28.4378 36.1883 27.4234 36.0182 25.9914L34.0322 26.2274ZM35.8288 30.5066C36.8695 31.5859 38.1881 32.125 39.7127 32.125V30.125C38.706 30.125 37.9152 29.7891 37.2685 29.1184L35.8288 30.5066ZM39.7127 32.125C41.3523 32.125 42.7397 31.4786 43.8033 30.2251L42.2783 28.9311C41.5919 29.7401 40.7606 30.125 39.7127 30.125V32.125ZM43.8033 30.2251C44.8721 28.9655 45.3533 27.3222 45.3533 25.4062H43.3533C43.3533 26.9903 42.9596 28.1282 42.2783 28.9311L43.8033 30.2251ZM45.3533 25.4062C45.3533 23.6178 44.8809 22.0711 43.847 20.8648L42.3284 22.1664C42.982 22.9289 43.3533 23.976 43.3533 25.4062H45.3533ZM43.8579 20.8778C42.8455 19.6553 41.5193 19.0156 39.9471 19.0156V21.0156C40.906 21.0156 41.6737 21.376 42.3175 22.1534L43.8579 20.8778ZM39.9471 19.0156C39.0081 19.0156 37.9403 19.2038 36.7608 19.5478L37.3208 21.4678C38.3913 21.1556 39.261 21.0156 39.9471 21.0156V19.0156ZM38.0329 20.6334L38.7126 15.2663L36.7284 15.015L36.0487 20.3822L38.0329 20.6334ZM37.7205 16.1406C39.5631 16.1406 41.136 15.7188 42.2875 14.7262L40.9816 13.2113C40.3206 13.7812 39.2841 14.1406 37.7205 14.1406V16.1406ZM42.2875 14.7262C43.4509 13.7233 43.9939 12.3402 43.9939 10.7109H41.9939C41.9939 11.8629 41.6308 12.6517 40.9816 13.2113L42.2875 14.7262ZM43.9939 10.7109C43.9939 9.36783 43.6012 8.18792 42.7329 7.27827L41.2862 8.65923C41.7304 9.12458 41.9939 9.77279 41.9939 10.7109H43.9939ZM42.7488 7.29526C41.8867 6.34904 40.724 5.91406 39.3846 5.91406V7.91406C40.2639 7.91406 40.8512 8.18221 41.2704 8.64224L42.7488 7.29526ZM39.3846 5.91406C37.9991 5.91406 36.7973 6.40733 35.8507 7.39341L37.2935 8.77847C37.8468 8.20205 38.52 7.91406 39.3846 7.91406V5.91406ZM35.8504 7.39371C34.9106 8.3735 34.4052 9.75404 34.2191 11.3951L36.2063 11.6205C36.364 10.2303 36.7648 9.32963 37.2938 8.77816L35.8504 7.39371ZM35.3867 10.5231L29.5508 9.49182L29.2027 11.4613L35.0387 12.4926L35.3867 10.5231ZM30.3581 10.6688C30.9251 7.77395 31.989 5.75693 33.4552 4.48087L32.1421 2.97226C30.2332 4.63369 29.0159 7.11668 28.3954 10.2843L30.3581 10.6688ZM33.4591 4.47741C34.9215 3.19102 36.9159 2.5 39.5486 2.5V0.5C36.5563 0.5 34.0507 1.29336 32.1382 2.97571L33.4591 4.47741ZM39.5486 2.5C42.0852 2.5 44.1564 3.28707 45.8305 4.83566L47.1886 3.36746C45.1128 1.44731 42.5433 0.5 39.5486 0.5V2.5ZM45.8336 4.83846C47.5331 6.39754 48.3455 8.20663 48.3455 10.3125H50.3455C50.3455 7.60587 49.2673 5.27434 47.1856 3.36466L45.8336 4.83846ZM48.3455 10.3125C48.3455 12.8703 47.0317 14.9829 44.0916 16.663L45.0838 18.3995C48.4874 16.4546 50.3455 13.7547 50.3455 10.3125H48.3455ZM44.3716 18.5076C46.065 18.8824 47.3713 19.6997 48.3438 20.9559L49.9253 19.7316C48.6478 18.0815 46.9229 17.0239 44.8038 16.5549L44.3716 18.5076ZM48.3438 20.9559C49.3136 22.2085 49.8221 23.7654 49.8221 25.6875H51.8221C51.8221 23.3908 51.2055 21.3852 49.9253 19.7316L48.3438 20.9559Z" fill="#7A8086"/>
</svg>
