<svg width="24" height="24" viewBox="0 0 24 24" fill="none" xmlns="http://www.w3.org/2000/svg">
<path d="M12 24C18.6274 24 24 18.6274 24 12C24 5.37258 18.6274 0 12 0C5.37258 0 0 5.37258 0 12C0 18.6274 5.37258 24 12 24Z" fill="#F0F0F0"/>
<path d="M2.47934 4.69415C1.53673 5.92054 0.825969 7.33406 0.412109 8.86964H6.65483L2.47934 4.69415Z" fill="#0052B4"/>
<path d="M23.5864 8.86965C23.1725 7.33412 22.4617 5.92061 21.5191 4.69421L17.3438 8.86965H23.5864Z" fill="#0052B4"/>
<path d="M0.412109 15.1305C0.826016 16.666 1.53678 18.0795 2.47934 19.3059L6.65469 15.1305H0.412109Z" fill="#0052B4"/>
<path d="M19.3043 2.48067C18.078 1.53806 16.6645 0.827297 15.1289 0.413391V6.65606L19.3043 2.48067Z" fill="#0052B4"/>
<path d="M4.69336 21.5193C5.91975 22.462 7.33327 23.1727 8.8688 23.5866V17.344L4.69336 21.5193Z" fill="#0052B4"/>
<path d="M8.86875 0.413391C7.33322 0.827297 5.9197 1.53806 4.69336 2.48063L8.86875 6.65602V0.413391Z" fill="#0052B4"/>
<path d="M15.1289 23.5866C16.6644 23.1727 18.078 22.4619 19.3043 21.5194L15.1289 17.344V23.5866Z" fill="#0052B4"/>
<path d="M17.3438 15.1305L21.5191 19.3059C22.4617 18.0796 23.1725 16.666 23.5864 15.1305H17.3438Z" fill="#0052B4"/>
<path d="M23.8984 10.4348H13.5653H13.5653V0.101578C13.0529 0.034875 12.5305 0 12 0C11.4694 0 10.9471 0.034875 10.4348 0.101578V10.4347V10.4347H0.101578C0.034875 10.9471 0 11.4695 0 12C0 12.5306 0.034875 13.0529 0.101578 13.5652H10.4347H10.4347V23.8984C10.9471 23.9651 11.4694 24 12 24C12.5305 24 13.0529 23.9652 13.5652 23.8984V13.5653V13.5653H23.8984C23.9651 13.0529 24 12.5306 24 12C24 11.4695 23.9651 10.9471 23.8984 10.4348Z" fill="#D80027"/>
<path d="M15.1289 15.1305L20.4837 20.4853C20.73 20.2391 20.9649 19.9817 21.1891 19.7149L16.6046 15.1304H15.1289V15.1305Z" fill="#D80027"/>
<path d="M8.87048 15.1305H8.87039L3.51562 20.4853C3.76181 20.7315 4.0192 20.9665 4.28602 21.1906L8.87048 16.6061V15.1305Z" fill="#D80027"/>
<path d="M8.86878 8.8696V8.86951L3.51397 3.51465C3.26769 3.76084 3.03275 4.01823 2.80859 4.28504L7.39311 8.86956H8.86878V8.8696Z" fill="#D80027"/>
<path d="M15.1289 8.86962L20.4838 3.51472C20.2376 3.26843 19.9802 3.0335 19.7134 2.80939L15.1289 7.3939V8.86962Z" fill="#D80027"/>
</svg>
